<svg width="250" height="320" viewBox="0 0 250 320" fill="none" xmlns="http://www.w3.org/2000/svg">
<g clip-path="url(#clip0_62_2200)">
<path d="M192.57 318.56L191.979 255.75L249.59 221.87V284.525L192.57 318.56Z" fill="#E6B63C" stroke="black" stroke-miterlimit="10"/>
<path d="M65.5713 127.823V143.507L42.9948 130.491L52.1124 135.628L65.5713 127.823Z" fill="#E6B63C" stroke="black" stroke-miterlimit="10"/>
<path d="M176.132 148.571L159.521 158.149M81.3938 118.648L83.0762 119.616V117.671L81.3938 118.648ZM133.555 88.4039L125.242 83.6765H125.234L133.539 88.4121L196.156 124.04L133.555 88.4039Z" stroke="black" stroke-miterlimit="10"/>
<path d="M199.135 135.308L176.132 148.571L196.156 137.007V133.47L199.135 135.308Z" fill="#E6B63C" stroke="black" stroke-miterlimit="10"/>
<path d="M207.489 130.491L199.135 135.308L196.156 133.47V124.04L207.489 130.491Z" fill="white" stroke="black" stroke-miterlimit="10"/>
<path d="M215.245 134.676L125.242 187.539V177.921L142.008 168.252L159.521 158.149L176.132 148.571L199.135 135.308L207.49 130.491L215.245 134.676Z" fill="white" stroke="black" stroke-miterlimit="10"/>
<path d="M215.245 134.676V156.393L125.242 207.893V187.539L215.245 134.676Z" fill="black" stroke="black" stroke-miterlimit="10"/>
<path d="M215.245 168.884V203.207L125.242 254.757V221.066L215.245 168.884Z" fill="black" stroke="black" stroke-miterlimit="10"/>
<path d="M125.242 177.921V263.391L117.224 268.521V183.149L125.242 177.921Z" fill="#E6B63C" stroke="black" stroke-miterlimit="10"/>
<path d="M31.0376 132.067L37.923 128.102L77.1017 150.681L77.2412 150.754L87.278 156.524L87.4831 156.655L114.327 172.11L114.426 172.167L124.454 177.945L117.208 182.673L31.0376 132.067Z" fill="white"/>
<path d="M37.9231 128.578L76.3714 150.722L76.7981 150.968L76.8638 151.009L76.8884 151.025L76.913 151.042L77.0279 151.099L86.8677 156.762L87.278 157.008L95.8212 161.925L102.961 166.036L114.114 172.454L114.138 172.471L114.171 172.496L114.196 172.512L114.221 172.528L121.344 176.632L123.675 177.978L117.2 182.197L31.8583 132.075L37.9231 128.587M37.9231 127.643L30.2252 132.075L117.224 183.165L125.242 177.937L121.754 175.926L114.631 171.823L114.582 171.79L114.557 171.773L114.524 171.757L103.371 165.339L96.2315 161.227L87.6884 156.311L77.4382 150.402L77.2987 150.328L77.2331 150.287L76.7817 150.024L37.9231 127.643Z" fill="black"/>
<path d="M30.6355 218.366V132.781L116.814 183.387V267.815L30.6355 218.366Z" fill="#FFEECC"/>
<path d="M31.0459 133.503L116.404 183.625V267.109L31.0459 218.136V133.503ZM30.2252 132.067V218.604L117.224 268.521V183.149L30.2252 132.067Z" fill="black"/>
<path d="M50.5203 197.61V169.853L92.9652 194.721V221.87L50.5203 197.61Z" fill="#020301"/>
<path d="M91.4634 214.55L55.7151 194.721V175.089L91.4634 195.862V214.55Z" fill="#E6B63C" stroke="black" stroke-miterlimit="10"/>
<path d="M61.2054 184.322L86.203 198.948" stroke="black" stroke-miterlimit="10"/>
<path d="M61.2054 190.552L86.203 204.988" stroke="black" stroke-miterlimit="10"/>
<path d="M77.2331 150.237V150.27L76.7817 150.008L70.241 146.208L77.2331 150.237Z" stroke="black" stroke-miterlimit="10"/>
<path d="M78.0619 150.722L77.4382 150.385L77.2987 150.311L77.233 150.27V150.237L78.0619 150.722Z" stroke="black" stroke-miterlimit="10"/>
<path d="M96.2315 161.194V161.211L87.6884 156.294V156.27L96.2315 161.194Z" stroke="black" stroke-miterlimit="10"/>
<path d="M103.371 165.314V165.322L96.2314 161.211V161.194L103.371 165.314Z" stroke="black" stroke-miterlimit="10"/>
<path d="M114.631 163.033V171.806L114.582 171.773L114.557 171.757L114.524 171.74L107.516 167.268V158.149L114.631 163.033Z" fill="#A1E5DD" stroke="black" stroke-miterlimit="10"/>
<path d="M70.3394 146.035L69.4202 145.51L69.2233 145.387V137.139L77.0278 142.071V149.884L70.3394 146.035Z" fill="#A1E5DD"/>
<path d="M69.4285 137.508L76.8227 142.186V149.532L70.4461 145.855L69.5352 145.329L69.4285 145.272V137.508ZM69.0182 136.761V145.502L69.3218 145.682L70.241 146.208L77.2331 150.237V141.956L69.0182 136.761Z" fill="black"/>
<path d="M76.5682 132.551L84.1266 137.565L77.2412 141.48L69.7895 136.769L76.5682 132.551ZM76.5682 132.067L69.0099 136.769L77.2248 141.964L84.9062 137.598L76.5682 132.067Z" fill="black"/>
<path d="M84.9145 137.59V154.464L78.2342 150.82L78.144 150.771L78.0619 150.722L77.233 150.237V141.956L84.9145 137.59Z" fill="black" stroke="black" stroke-miterlimit="10"/>
<path d="M96.2315 146.872V161.194L87.6884 156.27V141.431L96.2315 146.872Z" fill="#A1E5DD" stroke="black" stroke-miterlimit="10"/>
<path d="M103.371 141.431V165.314L96.2314 161.194V146.872L103.371 141.431Z" fill="black" stroke="black" stroke-miterlimit="10"/>
<path d="M121.754 158.633V175.91L114.631 171.806V163.033L121.754 158.633Z" fill="black" stroke="black" stroke-miterlimit="10"/>
<path d="M114.073 154.472L120.958 158.642L114.631 162.548L108.246 158.166L114.065 154.472M114.065 153.988L107.507 158.149L114.623 163.033L121.746 158.633L114.065 153.988Z" fill="black"/>
<path d="M142.008 153.381V168.252L125.242 177.921L121.754 175.91V158.633L114.073 153.988L107.516 158.149V167.267L114.524 171.74L103.371 165.314V141.431L94.705 136.761L87.6883 141.431V156.27L78.2342 150.82L84.9144 154.464V137.59L76.5764 132.058L69.0181 136.761V145.502L65.5713 143.516V109.587L72.6208 113.625L81.3938 118.648L83.0761 119.616L142.008 153.381Z" fill="#FFEECC" stroke="black" stroke-miterlimit="10"/>
<path d="M142.214 153.266L83.2814 119.501V101.084L89.0835 104.424H89.0917L97.6266 109.357L99.6947 110.555L125.751 125.583L125.849 125.648L159.316 144.952V158.034L142.214 167.899V153.266Z" fill="#FFEECC"/>
<path d="M83.4865 101.437L88.9357 104.58L89.0342 104.638L97.5281 109.538L99.5962 110.736L125.546 125.706L125.751 125.829L154.885 142.637L155.131 142.777L159.111 145.075V157.919L142.419 167.547V153.151L142.213 153.036L83.4865 119.386V101.445M83.0762 100.731V119.624L142.008 153.389V168.261L159.521 158.157V144.837L155.336 142.424L155.09 142.285L125.956 125.476L99.8014 110.383L97.7333 109.185L89.1491 104.227H89.1409L83.0762 100.731Z" fill="black"/>
<path d="M155.336 142.416L155.09 142.276" stroke="black" stroke-miterlimit="10"/>
<path d="M125.956 125.46L99.8014 110.375V91.5062L105.628 94.8384L114.106 99.6807L119.062 102.512L128 107.625C124.725 111.671 123.888 118.36 125.956 125.46Z" fill="#FFEECC" stroke="black" stroke-miterlimit="10"/>
<path d="M159.727 144.714L155.188 142.104L126.12 125.328C124.151 118.41 124.873 111.942 128.049 107.896L137.495 113.297L141.811 115.759L151.988 121.586H151.996L175.926 135.267V148.456L159.727 157.796V144.714Z" fill="#FFEECC"/>
<path d="M128.098 108.159L137.396 113.477L141.713 115.939L151.84 121.742L151.947 121.799L154.942 123.506L157.921 125.205L175.73 135.39V148.342L159.94 157.443V144.599L159.735 144.484L155.549 142.071L155.303 141.932L126.317 125.205C124.397 118.5 125.07 112.172 128.114 108.167M128.008 107.634C124.733 111.68 123.896 118.369 125.964 125.468L155.098 142.285L155.344 142.424L159.53 144.837V158.157L176.14 148.58V135.152L158.126 124.852L155.147 123.153L152.062 121.389H152.053L141.926 115.586L137.61 113.124L128.008 107.634Z" fill="black"/>
<path d="M125.234 83.6847L119.497 80.4182V102.512L128.123 107.486C129.042 106.378 130.158 105.475 131.446 104.827C131.865 104.613 132.308 104.424 132.776 104.269C134.31 103.751 135.935 103.587 137.601 103.751C140.433 104.022 143.354 105.212 146.12 107.133C150.215 109.964 153.916 114.404 156.354 119.846C156.444 120.051 156.534 120.264 156.624 120.47C157.232 121.906 157.724 123.342 158.102 124.754L176.132 135.144V148.571L196.156 137.007V124.04L133.539 88.4121L125.234 83.6847Z" fill="#FFEECC" stroke="black" stroke-miterlimit="10"/>
<path d="M158.102 124.754L155.098 123.022L152.193 121.348L141.975 115.463L137.601 112.944L128.123 107.486C129.042 106.378 130.158 105.475 131.446 104.827C131.865 104.613 132.308 104.424 132.776 104.269C134.31 103.751 135.935 103.587 137.601 103.751C140.433 104.022 143.354 105.212 146.12 107.133C150.215 109.964 153.916 114.405 156.354 119.846C156.444 120.051 156.534 120.265 156.624 120.47C157.232 121.906 157.724 123.342 158.102 124.754Z" stroke="black" stroke-miterlimit="10"/>
<path d="M65.5713 117.638V127.823L52.1124 135.629L42.9948 130.491L65.5713 117.638Z" fill="white" stroke="black" stroke-miterlimit="10"/>
<path d="M83.0762 107.675V117.671L81.3938 118.648L72.6208 113.625L77.7336 110.719V110.711L83.0762 107.675Z" fill="white" stroke="black" stroke-miterlimit="10"/>
<path d="M99.8014 98.1541V107.978L97.7334 109.176L89.1492 104.219L99.8014 98.1541Z" fill="white" stroke="black" stroke-miterlimit="10"/>
<path d="M119.497 86.943V96.5537L114.106 99.6807L105.628 94.8384L119.497 86.943Z" fill="white" stroke="black" stroke-miterlimit="10"/>
<path d="M215.245 156.393V161.867L125.242 213.023V207.893L215.245 156.393Z" fill="white" stroke="black" stroke-miterlimit="10"/>
<path d="M215.245 161.867V168.884L125.242 221.066V213.023L215.245 161.867Z" fill="#E6B63C" stroke="black" stroke-miterlimit="10"/>
<path d="M43.7416 66.154C43.7006 66.0883 43.6677 66.0227 43.6349 65.9488C43.6021 65.8831 43.561 65.8175 43.52 65.7436H43.5282C38.1118 55.0742 29.7082 48.0406 23.0115 47.9421C22.7079 47.9421 22.4124 47.9503 22.117 47.9749C22.6176 47.5399 23.1592 47.1788 23.7501 46.8833C24.9401 46.2924 26.2368 46.0216 27.6155 46.0462C34.3942 46.1365 42.9291 53.3507 48.3373 64.2499H48.3455C52.3094 72.2274 53.6881 80.3526 52.5556 86.27L47.6562 89.5037L49.0841 90.4721C48.8297 91.6868 48.4604 92.844 48.0091 93.911L46.2282 92.9015L44.3817 91.8591L24.8744 80.8368L16.9796 76.372L6.69666 70.5613V50.6176C6.88541 50.4945 7.08237 50.3714 7.27933 50.2565C8.4693 49.5671 9.74133 49.0993 11.0708 48.8367C11.4073 48.5904 11.7602 48.3606 12.1295 48.1472C14.731 46.6453 17.7428 46.1775 20.9106 46.6125L21.2143 48.098L21.3456 48.7218L26.7538 75.3707L45.3583 87.9525L47.648 89.4954C47.6562 89.4872 47.6644 89.4708 47.6644 89.4544C47.6644 89.438 47.6644 89.4298 47.6644 89.4134C47.73 89.1918 47.7793 88.962 47.8285 88.7322C48.1158 87.46 48.2799 86.073 48.3127 84.5957C48.4194 80.9763 47.7711 76.8481 46.3677 72.5721M43.7416 66.154C44.8085 68.2961 45.6784 70.4546 46.3677 72.5721M43.7416 66.154C44.8823 68.3371 45.7358 70.4956 46.3677 72.5721" stroke="black" stroke-miterlimit="10"/>
<path d="M48.3128 84.5957L26.7456 75.3707L43.5201 65.7518C43.5611 65.8175 43.6021 65.8832 43.6349 65.9488C43.6678 66.0227 43.7006 66.0883 43.7416 66.154C44.8085 68.2961 45.6784 70.4546 46.3678 72.5721C47.7711 76.8481 48.4194 80.9763 48.3128 84.5957Z" stroke="black" stroke-miterlimit="10"/>
<path d="M77.7337 41.7702V110.719L48.0255 93.9274L48.0009 93.9109C48.4523 92.844 48.8216 91.6868 49.076 90.4721L47.648 89.5036L52.5474 86.27C53.6799 80.3525 52.3012 72.2273 48.3374 64.2499C42.9292 53.3506 34.3942 46.1364 27.6155 46.0462C26.2368 46.0215 24.9401 46.2924 23.7502 46.8833C23.1593 47.1788 22.6176 47.5399 22.117 47.9749C21.8462 48.1965 21.5918 48.4427 21.3374 48.7217L21.2061 48.098L20.9024 46.6125C17.7347 46.1775 14.7228 46.6453 12.1213 48.1472C11.752 48.3606 11.3991 48.5904 11.0626 48.8366C9.73315 49.0993 8.46112 49.5671 7.27115 50.2565C7.07419 50.3714 6.87723 50.4945 6.68848 50.6176V0.988281L77.7337 41.7702Z" fill="#FF9565" stroke="black" stroke-miterlimit="10"/>
<path d="M242.146 256.579L207.49 275.965" stroke="black" stroke-miterlimit="10"/>
<path d="M205.511 289.909L181.942 270.367L191.979 255.75L201.31 263.851L223.139 231.276L237.575 242.725L205.511 289.909Z" fill="black"/>
<path d="M242.146 264.918L206.833 284.804" stroke="black" stroke-miterlimit="10"/>
<path d="M190.657 272.624L197.124 262.587L206.628 271.385L229.163 238.104L234.662 243.111L205.495 286.429L190.657 272.624Z" fill="#EC9C9E"/>
<path d="M229.196 238.416L234.391 243.144L205.454 286.117L190.92 272.591L197.157 262.907L206.308 271.377L206.661 271.705L206.931 271.311L229.196 238.424M229.122 237.801L206.587 271.073L197.083 262.267L190.395 272.657L205.536 286.741L234.933 243.078L229.122 237.793V237.801Z" fill="black"/>
<path d="M242.146 274.865L206.833 294.447" stroke="black" stroke-miterlimit="10"/>
<path d="M47.656 89.4544C47.656 89.4544 47.6479 89.4868 47.6398 89.4949C47.6398 89.503 47.6479 89.503 47.6479 89.503C47.656 89.4868 47.656 89.4706 47.656 89.4544Z" fill="black"/>
<path d="M49.076 90.4721C48.8215 91.6868 48.4522 92.844 48.0009 93.911C48.0009 93.9274 47.9927 93.9438 47.9927 93.952H47.9845C46.7781 96.7999 44.8988 99.0897 42.3711 100.551C41.1811 101.24 39.9009 101.708 38.5632 101.979C40.5985 100.518 42.1331 98.4578 43.1754 95.9792C43.4462 95.3226 43.6842 94.6332 43.8975 93.9192C43.996 93.5745 44.0863 93.2216 44.1684 92.8604C44.234 92.5732 44.2997 92.2859 44.3489 91.9905C44.3571 91.9494 44.3653 91.9084 44.3735 91.8591C44.3735 91.8181 44.3899 91.7853 44.3981 91.7442L21.8954 77.48L16.4954 50.9213L16.0523 48.7218C14.3289 48.4837 12.6547 48.5166 11.0626 48.8367C11.3991 48.5904 11.752 48.3606 12.1213 48.1472C14.7228 46.6453 17.7347 46.1775 20.9024 46.6125L21.2061 48.098L21.3374 48.7218L26.7456 75.3707L45.3501 87.9525L47.6398 89.4955L47.648 89.5037L49.076 90.4721Z" fill="black" stroke="black" stroke-miterlimit="10"/>
<path d="M30.9637 104.145C22.3631 104.145 12.3592 96.8081 6.05648 85.9007C-2.06813 71.8088 -1.73986 56.3873 6.80329 50.79C6.99204 50.6669 7.18079 50.5438 7.37775 50.4371C8.52669 49.7723 9.7741 49.3045 11.1036 49.0418C11.9817 48.8613 12.9008 48.7792 13.8446 48.7792C14.5094 48.7792 15.1987 48.8284 15.8881 48.9105L16.2984 50.9623L21.7148 77.6113L44.1683 91.8427L44.1519 91.9494C44.1026 92.2449 44.037 92.5157 43.9795 92.7948C43.8975 93.1723 43.8072 93.5252 43.7087 93.8617C43.4871 94.6086 43.2491 95.2734 42.9947 95.8971C41.9361 98.4167 40.4096 100.403 38.4482 101.806C38.0871 102.069 37.7507 102.291 37.4224 102.479C35.5102 103.587 33.3437 104.145 30.9637 104.145Z" fill="#78AAA7"/>
<path d="M13.8365 48.9762C14.4438 48.9762 15.0757 49.0172 15.7076 49.0911L16.0933 51.0034L21.4933 77.5621L21.5261 77.7344L21.6739 77.8247L43.9386 91.9412C43.8893 92.2203 43.8319 92.4911 43.7662 92.7702C43.6842 93.1231 43.5939 93.4678 43.5036 93.8043C43.282 94.5429 43.0523 95.2077 42.7979 95.8233C41.7556 98.3101 40.2456 100.272 38.3252 101.65C37.9723 101.905 37.6441 102.126 37.324 102.307C35.4447 103.39 33.3109 103.94 30.972 103.94C22.4453 103.94 12.507 96.644 6.23711 85.794C2.32253 79.023 0.26265 71.6775 0.418577 65.1117C0.574504 58.6279 2.88058 53.5969 6.91006 50.9623C7.09061 50.8392 7.28757 50.7243 7.47632 50.6094C8.60063 49.9529 9.83984 49.4932 11.1447 49.2388C12.0146 49.0665 12.9173 48.9762 13.8447 48.9762M13.8447 48.5658C12.8927 48.5658 11.9654 48.6561 11.0708 48.8367C9.74136 49.0993 8.46933 49.5671 7.27936 50.2565C7.0824 50.3714 6.88544 50.4945 6.69668 50.6176C-1.86288 56.2232 -2.28142 71.8416 5.88422 85.9992C12.4167 97.317 22.5192 104.351 30.972 104.351C33.3191 104.351 35.5432 103.809 37.5292 102.66C37.8903 102.455 38.2349 102.225 38.5714 101.979C40.6067 100.518 42.1413 98.4578 43.1836 95.9792C43.4544 95.3226 43.6924 94.6332 43.9058 93.9192C44.0042 93.5745 44.0945 93.2216 44.1766 92.8604C44.2422 92.5732 44.3079 92.2859 44.3571 91.9905C44.3653 91.9494 44.3735 91.9084 44.3817 91.8592C44.3817 91.8181 44.3982 91.7853 44.4064 91.7443L21.9037 77.48L16.5037 50.9213L16.0605 48.7218C15.3137 48.6151 14.5751 48.5658 13.8447 48.5658Z" fill="black"/>
<path d="M21.4523 48.262C21.4523 48.262 21.4847 48.262 21.5009 48.2539C21.4847 48.2701 21.4685 48.2864 21.4604 48.2945V48.262H21.4523Z" fill="#A1E5DD"/>
<path d="M22.117 47.9749C21.8051 47.9995 21.5015 48.0405 21.2061 48.098L21.3374 48.7217C21.5918 48.4427 21.8462 48.1965 22.117 47.9749Z" fill="black"/>
<path d="M43.6349 65.9488C43.6021 65.8832 43.5611 65.8175 43.52 65.7518H43.5282C43.5693 65.8093 43.6021 65.8749 43.6349 65.9488Z" fill="#A1E5DD"/>
<path d="M43.5282 65.7436H43.52C43.5611 65.8175 43.6021 65.8831 43.6349 65.9488C43.6021 65.8749 43.5693 65.8093 43.5282 65.7436Z" fill="black"/>
<path d="M43.7416 66.154C44.8084 68.2961 45.6784 70.4546 46.3677 72.5721C45.7358 70.4956 44.8823 68.3371 43.7416 66.154Z" stroke="black" stroke-miterlimit="10"/>
<path d="M48.0255 88.7814C48.3209 87.4847 48.4851 86.0812 48.5179 84.6039C48.6246 80.9189 47.9516 76.7414 46.5647 72.5146C45.8918 70.2987 44.9972 68.1237 43.9222 66.0637C43.8811 65.9898 43.8483 65.9324 43.8237 65.8667C43.7991 65.8093 43.7662 65.76 43.7416 65.7108L43.717 65.6451C38.4155 55.1973 29.9052 47.8354 23.0197 47.7287C23.0197 47.7287 22.831 47.7287 22.7407 47.7287C23.0854 47.4743 23.4547 47.2527 23.8404 47.0557C24.9319 46.514 26.1465 46.235 27.4431 46.235H27.6073C34.4599 46.3252 42.9127 53.7692 48.1486 64.3238C51.9237 71.9155 53.4911 80.0571 52.3586 86.1305L47.968 89.0276C47.9845 88.9374 48.0091 88.8471 48.0255 88.7568V88.7814Z" fill="black"/>
<path d="M27.4432 46.4565H27.6073C34.386 46.5468 42.7568 53.9416 47.9681 64.4305C51.7021 71.9483 53.2696 79.9996 52.1781 86.0238L48.2799 88.5926C48.5425 87.3533 48.6903 86.0074 48.7231 84.6039C48.8298 80.8942 48.1568 76.6921 46.7617 72.4489C46.0805 70.2084 45.186 68.0252 44.0945 65.9324C44.0699 65.8995 44.0535 65.8585 44.0371 65.8175C44.0371 65.8011 44.0207 65.7846 44.0125 65.7682C43.996 65.7436 43.9796 65.7108 43.9632 65.6862L43.8976 65.5631C38.6617 55.2465 30.2909 47.9174 23.4055 47.5481C23.5778 47.4414 23.7584 47.3429 23.9389 47.2526C25.0058 46.7274 26.1876 46.4565 27.4514 46.4565M27.4514 46.0462C26.1383 46.0462 24.8991 46.317 23.7584 46.8833C23.1675 47.1788 22.6259 47.5399 22.1252 47.9749C22.4207 47.9503 22.7161 47.9421 23.0198 47.9421C29.7164 48.0405 38.1201 55.0742 43.5365 65.7436H43.5283C43.5693 65.8175 43.6103 65.8831 43.6432 65.9488C43.676 66.0227 43.7088 66.0883 43.7498 66.154C44.8906 68.3371 45.7441 70.4956 46.376 72.5721C47.7793 76.848 48.4276 80.9763 48.321 84.5957C48.2881 86.073 48.124 87.46 47.8368 88.7322C47.7875 88.962 47.7383 89.1918 47.6726 89.4134C47.6726 89.4298 47.6726 89.438 47.6726 89.4544C47.6726 89.4708 47.6726 89.4872 47.6644 89.5036L52.5638 86.27C53.6963 80.3525 52.3176 72.2274 48.3538 64.2499C42.9456 53.3506 34.4106 46.1365 27.6319 46.0462C27.5745 46.0462 27.517 46.0462 27.4596 46.0462H27.4514Z" fill="black"/>
<path d="M21.559 48.7874C21.7724 48.5576 21.9857 48.3606 22.1991 48.1801C22.4699 48.1637 22.7325 48.1555 23.0116 48.1555C29.7082 48.2539 38.0216 55.4517 43.2574 65.678L26.8851 75.0589L21.5508 48.7956L21.559 48.7874Z" fill="#A1E5DD"/>
<path d="M23.0033 48.3524C29.5932 48.4509 37.7671 55.5174 42.9783 65.5877L27.0245 74.7306L21.7723 48.8449C21.9364 48.6725 22.1005 48.5166 22.2729 48.3689C22.4944 48.3524 22.7242 48.3442 23.0033 48.3442M23.0033 47.9339C22.6996 47.9339 22.4042 47.9421 22.1087 47.9667C21.8379 48.1883 21.5835 48.4345 21.3291 48.7136L26.7373 75.3626L43.5117 65.7436H43.52C38.1035 55.066 29.6999 48.0324 23.0033 47.9339Z" fill="black"/>
<path d="M46.3677 72.5721C45.6784 70.4546 44.8084 68.2961 43.7416 66.154C44.8823 68.3371 45.7358 70.4956 46.3677 72.5721Z" fill="#FFEECC" stroke="black" stroke-width="0.5" stroke-miterlimit="10"/>
<path d="M47.656 89.4544C47.656 89.4544 47.656 89.4868 47.6479 89.503C47.6479 89.503 47.6398 89.503 47.6398 89.4949C47.6479 89.4868 47.656 89.4706 47.656 89.4544Z" fill="#FFEECC" stroke="black" stroke-width="0.5" stroke-miterlimit="10"/>
<path d="M154.967 139.42L138.701 124.253" stroke="black" stroke-miterlimit="10"/>
<path d="M157.043 140.028C156.559 140.914 155.992 141.71 155.336 142.416L155.09 142.276C155.582 141.398 155.984 140.438 156.296 139.42C156.961 137.27 157.24 134.824 157.109 132.222C157.1 131.968 157.084 131.705 157.059 131.443C157.043 131.188 157.018 130.926 156.985 130.663C156.961 130.4 156.928 130.13 156.887 129.867C156.821 129.35 156.731 128.825 156.624 128.299C156.567 128.02 156.509 127.733 156.444 127.446C156.386 127.175 156.321 126.904 156.247 126.625C156.181 126.354 156.107 126.083 156.025 125.804C155.96 125.583 155.894 125.361 155.828 125.14C155.763 124.918 155.689 124.696 155.615 124.475C155.541 124.253 155.467 124.032 155.385 123.81C155.303 123.588 155.221 123.367 155.139 123.145C155.131 123.104 155.114 123.063 155.098 123.022C154.885 122.464 154.655 121.898 154.4 121.34C154.343 121.208 154.277 121.077 154.22 120.946C151.963 116.071 148.73 112.008 145.119 109.144C142.722 107.24 140.145 105.877 137.601 105.171C135.509 104.58 133.416 104.449 131.446 104.827C131.865 104.613 132.308 104.424 132.776 104.269C134.31 103.751 135.935 103.587 137.601 103.751C140.433 104.022 143.354 105.212 146.12 107.133C150.215 109.964 153.916 114.405 156.354 119.846C156.444 120.051 156.534 120.265 156.624 120.47C157.232 121.906 157.724 123.342 158.102 124.754C158.102 124.787 158.11 124.811 158.118 124.844C159.636 130.655 159.185 136.129 157.043 140.028Z" fill="#020301"/>
<path d="M126.309 125.197C124.348 118.336 125.094 111.868 128.32 107.888L128.443 107.748C129.337 106.665 130.412 105.811 131.635 105.196C132.128 105.032 133.014 104.802 134.105 104.802C134.228 104.802 134.36 104.802 134.499 104.81C135.427 104.851 136.354 105.073 137.199 105.434V124.45L155.828 139.568C155.582 140.331 155.279 141.045 154.934 141.718L126.309 125.205V125.197Z" fill="#519A62"/>
<path d="M134.097 105.212C134.22 105.212 134.343 105.212 134.466 105.221C135.254 105.262 136.042 105.426 136.781 105.713V124.647L137.084 124.893L155.344 139.708C155.172 140.208 154.975 140.684 154.761 141.144L126.662 124.934C124.791 118.262 125.529 112 128.631 108.159L128.672 108.118C128.672 108.118 128.73 108.052 128.755 108.019C129.6 107.002 130.617 106.181 131.766 105.598C132.283 105.426 133.096 105.221 134.097 105.221M134.097 104.4C132.94 104.4 132.021 104.638 131.446 104.835C130.158 105.483 129.042 106.386 128.123 107.494C128.082 107.543 128.041 107.584 128 107.634C124.725 111.68 123.888 118.369 125.956 125.468L155.09 142.285C155.582 141.406 155.984 140.446 156.296 139.428L137.601 124.261V105.18C136.978 104.884 135.903 104.474 134.507 104.408C134.368 104.408 134.228 104.4 134.097 104.4Z" fill="black"/>
<path d="M138.069 124.368L154.105 121.176L154.212 121.414C156.953 127.553 157.667 133.962 156.189 139.059L138.069 124.36V124.368Z" fill="#FFEECC"/>
<path d="M153.982 121.413C153.982 121.413 154.006 121.479 154.023 121.512C156.69 127.487 157.42 133.716 156.075 138.714L138.537 124.491L153.982 121.422M154.22 120.954L137.601 124.261L156.296 139.428C157.839 134.43 157.314 127.881 154.4 121.348C154.343 121.217 154.277 121.085 154.22 120.954Z" fill="black"/>
<path d="M137.807 105.45C140.187 106.148 142.616 107.445 144.864 109.209L137.807 123.391V105.459V105.45Z" fill="#EC9C9E"/>
<path d="M138.012 105.721C140.236 106.419 142.492 107.634 144.602 109.259L138.012 122.505V105.721ZM137.601 105.171V124.253L145.119 109.144C142.722 107.24 140.145 105.877 137.601 105.171Z" fill="black"/>
<path d="M145.184 109.464C148.771 112.361 151.791 116.276 153.916 120.798L137.962 123.974L145.184 109.464Z" fill="#A1E5DD"/>
<path d="M145.258 109.784C148.672 112.599 151.553 116.333 153.629 120.642L138.348 123.687L145.266 109.784M145.127 109.144L137.61 124.253L154.228 120.946C151.971 116.071 148.738 112.008 145.127 109.144Z" fill="black"/>
<path d="M48.3128 84.5957L26.7456 75.3707L43.5201 65.7518C43.5611 65.8175 43.6021 65.8832 43.6349 65.9488C43.6678 66.0227 43.7006 66.0883 43.7416 66.154C44.8824 68.3371 45.7359 70.4956 46.3678 72.5721C47.7711 76.8481 48.4194 80.9763 48.3128 84.5957Z" fill="#E6B63C" stroke="black" stroke-miterlimit="10"/>
<path d="M45.465 87.7884L28.6414 76.4131L48.1076 84.7353C48.0666 86.1387 47.9106 87.4683 47.6316 88.6912C47.5988 88.8553 47.566 89.0112 47.5249 89.1672L45.4733 87.7801L45.465 87.7884Z" fill="#EC9C9E"/>
<path d="M30.5288 77.439L47.8859 84.8665C47.8367 86.2043 47.6808 87.4764 47.4182 88.6501C47.4017 88.7075 47.3935 88.7732 47.3771 88.8306L45.5717 87.616L30.5288 77.439ZM26.7373 75.3707L45.3419 87.9525L47.6315 89.4954C47.6315 89.4954 47.6479 89.4708 47.6479 89.4544C47.6479 89.438 47.6479 89.4298 47.6479 89.4134C47.7136 89.1918 47.7628 88.962 47.8121 88.7322C48.0993 87.46 48.2634 86.073 48.2963 84.5957L26.7291 75.3707H26.7373Z" fill="black"/>
</g>
<defs>
<clipPath id="clip0_62_2200">
<rect width="250" height="319" fill="white" transform="translate(0 0.282471)"/>
</clipPath>
</defs>
</svg>
