<svg width="80" height="23" viewBox="0 0 80 23" fill="none" xmlns="http://www.w3.org/2000/svg">
<path d="M79.5555 20.2211C79.5555 21.4392 78.537 22.4259 77.2773 22.4259H2.72542C1.46634 22.4259 0.444336 21.4392 0.444336 20.2211V2.63891C0.444336 1.4214 1.46634 0.431274 2.72542 0.431274H77.2767C78.537 0.431274 79.5549 1.4214 79.5549 2.63891L79.5555 20.2211Z" fill="white"/>
<path d="M77.037 0.457893C78.4089 0.457893 79.5252 1.53432 79.5252 2.85718V20C79.5252 21.3229 78.4089 22.3993 77.037 22.3993H2.96296C1.59111 22.3993 0.474815 21.3229 0.474815 20V2.85718C0.474815 1.53432 1.59111 0.457893 2.96296 0.457893H77.037ZM77.037 3.62396e-05H2.96296C1.33407 3.62396e-05 0 1.28646 0 2.85718V20C0 21.5707 1.33407 22.8572 2.96296 22.8572H77.037C78.6659 22.8572 80 21.5707 80 20V2.85718C80 1.28646 78.6659 3.62396e-05 77.037 3.62396e-05Z" fill="#A6A6A6"/>
<path d="M17.8536 11.3052C17.8364 9.46347 19.4174 8.56747 19.4897 8.52575C18.5943 7.2669 17.2065 7.0949 16.7187 7.08118C15.5531 6.9629 14.4225 7.75375 13.8287 7.75375C13.223 7.75375 12.3087 7.09261 11.3232 7.11204C10.055 7.1309 8.86868 7.8389 8.21801 8.93833C6.87519 11.18 7.87668 14.4743 9.16319 16.2863C9.80675 17.1738 10.5587 18.1646 11.543 18.1298C12.506 18.0915 12.8657 17.5378 14.0278 17.5378C15.1792 17.5378 15.517 18.1298 16.5208 18.1075C17.5543 18.0915 18.205 17.216 18.826 16.3206C19.5697 15.3035 19.8684 14.3018 19.8802 14.2503C19.8559 14.2423 17.8731 13.5126 17.8536 11.3052Z" fill="black"/>
<path d="M15.9573 5.88918C16.4752 5.26461 16.8296 4.4149 16.7312 3.55261C15.9816 3.58461 15.0441 4.05261 14.5042 4.66347C14.0266 5.20176 13.5999 6.08404 13.7102 6.91375C14.5522 6.97433 15.4168 6.50404 15.9573 5.88918Z" fill="black"/>
<path d="M29.0667 5.71954C29.0667 6.39211 28.8575 6.8984 28.4397 7.2384C28.0527 7.55211 27.5028 7.70925 26.7905 7.70925C26.4373 7.70925 26.1351 7.6944 25.8821 7.66468V3.98982C26.2122 3.93839 26.5677 3.91211 26.9517 3.91211C27.6302 3.91211 28.1416 4.05439 28.4865 4.33897C28.8729 4.66068 29.0667 5.12068 29.0667 5.71954ZM28.4119 5.73611C28.4119 5.30011 28.2922 4.96582 28.0527 4.73268C27.8133 4.50011 27.4637 4.38354 27.0033 4.38354C26.8077 4.38354 26.6412 4.39611 26.5031 4.42239V7.21611C26.5796 7.22754 26.7194 7.23268 26.9227 7.23268C27.3979 7.23268 27.7647 7.10525 28.0231 6.8504C28.2815 6.59554 28.4119 6.22411 28.4119 5.73611Z" fill="black"/>
<path d="M32.5387 6.30692C32.5387 6.7212 32.4161 7.06063 32.1707 7.32692C31.9135 7.60063 31.5728 7.7372 31.1473 7.7372C30.7373 7.7372 30.4107 7.60635 30.1672 7.34349C29.9242 7.0812 29.8027 6.75035 29.8027 6.35149C29.8027 5.93435 29.9278 5.59206 30.179 5.32635C30.4303 5.06063 30.7681 4.92749 31.1936 4.92749C31.6036 4.92749 31.9331 5.05835 32.1826 5.32063C32.4196 5.57549 32.5387 5.90463 32.5387 6.30692ZM31.8946 6.32635C31.8946 6.07778 31.8389 5.86463 31.7281 5.68692C31.5977 5.47206 31.4122 5.36463 31.171 5.36463C30.9216 5.36463 30.7319 5.47206 30.6015 5.68692C30.4901 5.86463 30.435 6.0812 30.435 6.3372C30.435 6.58578 30.4907 6.79892 30.6015 6.97663C30.7361 7.19149 30.9233 7.29892 31.1651 7.29892C31.4021 7.29892 31.5882 7.18978 31.7221 6.97092C31.8371 6.78978 31.8946 6.57492 31.8946 6.32635Z" fill="black"/>
<path d="M37.1941 4.9823L36.3201 7.67601H35.7512L35.3891 6.5063C35.2972 6.2143 35.2226 5.92401 35.1645 5.63601H35.1532C35.0993 5.93201 35.0247 6.22173 34.9287 6.5063L34.5441 7.67601H33.9687L33.1467 4.9823H33.785L34.1008 6.26287C34.1772 6.56573 34.2401 6.8543 34.2904 7.12744H34.3017C34.3479 6.9023 34.4244 6.61544 34.5322 6.26859L34.9287 4.98287H35.4347L35.8146 6.24116C35.9064 6.54801 35.9811 6.84344 36.0386 7.12801H36.0558C36.0978 6.85087 36.1612 6.55544 36.2454 6.24116L36.5844 4.98287H37.1941V4.9823Z" fill="black"/>
<path d="M40.4137 7.67607H39.7926V6.13321C39.7926 5.65778 39.6054 5.42007 39.2297 5.42007C39.0454 5.42007 38.8966 5.48521 38.7811 5.61607C38.6667 5.74692 38.6086 5.90121 38.6086 6.07778V7.6755H37.9876V5.75207C37.9876 5.5155 37.9799 5.25892 37.9651 4.98121H38.5109L38.5399 5.40235H38.5571C38.6294 5.2715 38.7372 5.1635 38.8789 5.07721C39.0472 4.97664 39.2356 4.92578 39.4418 4.92578C39.7026 4.92578 39.9195 5.00692 40.0919 5.16978C40.3064 5.36921 40.4137 5.66692 40.4137 6.06235V7.67607Z" fill="black"/>
<path d="M42.1263 7.67605H41.5059V3.74634H42.1263V7.67605Z" fill="black"/>
<path d="M45.7826 6.30692C45.7826 6.7212 45.66 7.06063 45.4146 7.32692C45.1574 7.60063 44.8161 7.7372 44.3912 7.7372C43.9806 7.7372 43.654 7.60635 43.4111 7.34349C43.1681 7.0812 43.0466 6.75035 43.0466 6.35149C43.0466 5.93435 43.1717 5.59206 43.4229 5.32635C43.6742 5.06063 44.012 4.92749 44.4369 4.92749C44.8475 4.92749 45.1764 5.05835 45.4265 5.32063C45.6635 5.57549 45.7826 5.90463 45.7826 6.30692ZM45.1379 6.32635C45.1379 6.07778 45.0822 5.86463 44.9714 5.68692C44.8416 5.47206 44.6555 5.36463 44.4149 5.36463C44.1649 5.36463 43.9752 5.47206 43.8454 5.68692C43.734 5.86463 43.6789 6.0812 43.6789 6.3372C43.6789 6.58578 43.7346 6.79892 43.8454 6.97663C43.98 7.19149 44.1672 7.29892 44.409 7.29892C44.646 7.29892 44.8315 7.18978 44.9654 6.97092C45.081 6.78978 45.1379 6.57492 45.1379 6.32635Z" fill="black"/>
<path d="M48.7882 7.67606H48.2306L48.1843 7.36578H48.1672C47.9764 7.6132 47.7044 7.7372 47.3512 7.7372C47.0875 7.7372 46.8741 7.65549 46.7135 7.4932C46.5678 7.34578 46.4949 7.16235 46.4949 6.94463C46.4949 6.61549 46.6371 6.36463 46.9233 6.19092C47.2089 6.0172 47.6107 5.93206 48.1281 5.93606V5.88578C48.1281 5.53092 47.9349 5.35378 47.5479 5.35378C47.2724 5.35378 47.0294 5.42063 46.8196 5.5532L46.6934 5.16006C46.9529 5.0052 47.2735 4.92749 47.6516 4.92749C48.3817 4.92749 48.7479 5.29892 48.7479 6.04178V7.03378C48.7479 7.30292 48.7615 7.5172 48.7882 7.67606ZM48.1435 6.75035V6.33492C47.4584 6.32349 47.1159 6.50463 47.1159 6.87778C47.1159 7.01835 47.155 7.12349 47.235 7.19378C47.315 7.26406 47.4169 7.29892 47.5384 7.29892C47.6747 7.29892 47.8021 7.2572 47.9183 7.17435C48.035 7.09092 48.1067 6.9852 48.1334 6.85549C48.1399 6.82635 48.1435 6.79092 48.1435 6.75035Z" fill="black"/>
<path d="M52.3171 7.67605H51.7659L51.7369 7.24348H51.7197C51.5437 7.57262 51.2439 7.7372 50.8225 7.7372C50.4859 7.7372 50.2056 7.60977 49.9834 7.35491C49.7612 7.10005 49.6504 6.7692 49.6504 6.36291C49.6504 5.92691 49.7707 5.57377 50.0125 5.30405C50.2465 5.05262 50.5333 4.92691 50.8747 4.92691C51.2498 4.92691 51.5123 5.04862 51.6616 5.29262H51.6735V3.74634H52.2951V6.95034C52.2951 7.21262 52.3022 7.45434 52.3171 7.67605ZM51.6735 6.54005V6.09091C51.6735 6.0132 51.6676 5.95034 51.6563 5.90234C51.6213 5.75834 51.5461 5.6372 51.4317 5.53948C51.3162 5.44177 51.1769 5.39262 51.0163 5.39262C50.7846 5.39262 50.6033 5.48119 50.4699 5.65891C50.3378 5.83662 50.2708 6.06348 50.2708 6.34062C50.2708 6.60691 50.3342 6.82291 50.4616 6.9892C50.5962 7.16634 50.7775 7.25491 51.0045 7.25491C51.2083 7.25491 51.3713 7.18119 51.4951 7.03319C51.6148 6.89662 51.6735 6.73205 51.6735 6.54005Z" fill="black"/>
<path d="M57.6286 6.30692C57.6286 6.7212 57.5059 7.06063 57.2606 7.32692C57.0034 7.60063 56.6632 7.7372 56.2372 7.7372C55.8277 7.7372 55.5012 7.60635 55.257 7.34349C55.0141 7.0812 54.8926 6.75035 54.8926 6.35149C54.8926 5.93435 55.0176 5.59206 55.2689 5.32635C55.5201 5.06063 55.8579 4.92749 56.284 4.92749C56.6935 4.92749 57.0235 5.05835 57.2724 5.32063C57.5095 5.57549 57.6286 5.90463 57.6286 6.30692ZM56.985 6.32635C56.985 6.07778 56.9293 5.86463 56.8185 5.68692C56.6875 5.47206 56.5027 5.36463 56.2609 5.36463C56.012 5.36463 55.8224 5.47206 55.6914 5.68692C55.58 5.86463 55.5249 6.0812 55.5249 6.3372C55.5249 6.58578 55.5806 6.79892 55.6914 6.97663C55.8259 7.19149 56.0132 7.29892 56.2549 7.29892C56.492 7.29892 56.6787 7.18978 56.8126 6.97092C56.9269 6.78978 56.985 6.57492 56.985 6.32635Z" fill="black"/>
<path d="M60.9678 7.67607H60.3473V6.13321C60.3473 5.65778 60.1601 5.42007 59.7838 5.42007C59.5995 5.42007 59.4507 5.48521 59.3358 5.61607C59.2208 5.74692 59.1633 5.90121 59.1633 6.07778V7.6755H58.5417V5.75207C58.5417 5.5155 58.5346 5.25892 58.5198 4.98121H59.065L59.094 5.40235H59.1112C59.1841 5.2715 59.2919 5.1635 59.433 5.07721C59.6018 4.97664 59.7897 4.92578 59.9965 4.92578C60.2567 4.92578 60.4735 5.00692 60.646 5.16978C60.8611 5.36921 60.9678 5.66692 60.9678 6.06235V7.67607Z" fill="black"/>
<path d="M65.1474 5.43095H64.4635V6.73952C64.4635 7.07209 64.585 7.23838 64.8256 7.23838C64.937 7.23838 65.0294 7.22924 65.1023 7.21038L65.1183 7.66467C64.9957 7.70924 64.8345 7.73152 64.636 7.73152C64.3906 7.73152 64.1998 7.65952 64.0617 7.51552C63.9231 7.37152 63.8543 7.12924 63.8543 6.78924V5.43095H63.446V4.98238H63.8543V4.48867L64.4629 4.31152V4.98181H65.1468V5.43095H65.1474Z" fill="black"/>
<path d="M68.4349 7.67605H67.8132V6.14462C67.8132 5.66177 67.626 5.42005 67.2509 5.42005C66.9629 5.42005 66.7661 5.56005 66.6583 5.84005C66.6399 5.89891 66.6292 5.97091 66.6292 6.05548V7.67548H66.0088V3.74634H66.6292V5.36977H66.6411C66.8366 5.07434 67.1169 4.92691 67.4802 4.92691C67.7374 4.92691 67.9501 5.00805 68.119 5.17091C68.3294 5.37377 68.4349 5.67548 68.4349 6.07434V7.67605Z" fill="black"/>
<path d="M71.8263 6.20179C71.8263 6.30922 71.818 6.39951 71.8032 6.47322H69.9407C69.949 6.73951 70.0379 6.94236 70.2103 7.08293C70.368 7.20865 70.5712 7.27151 70.8201 7.27151C71.0957 7.27151 71.3469 7.22922 71.5733 7.14408L71.6705 7.56008C71.4056 7.67093 71.0939 7.72636 70.733 7.72636C70.3004 7.72636 69.9597 7.60351 69.7131 7.35779C69.4654 7.11208 69.3428 6.78236 69.3428 6.36865C69.3428 5.96236 69.4571 5.62408 69.6877 5.35436C69.9283 5.06636 70.2536 4.92236 70.6643 4.92236C71.066 4.92236 71.3712 5.06636 71.5774 5.35436C71.744 5.58293 71.8263 5.86579 71.8263 6.20179ZM71.2337 6.04693C71.2385 5.86922 71.1976 5.71608 71.1134 5.58693C71.0056 5.42065 70.8414 5.33722 70.6192 5.33722C70.4166 5.33722 70.2512 5.41836 70.125 5.58122C70.0219 5.71093 69.9608 5.86579 69.9407 6.04693H71.2337Z" fill="black"/>
<path d="M31.7896 18.0023H30.4438L29.7067 15.7686H27.1443L26.4421 18.0023H25.1318L27.6705 10.3977H29.2385L31.7896 18.0023ZM29.4844 14.8314L28.8178 12.8457C28.7472 12.6428 28.6151 12.1651 28.4201 11.4131H28.3964C28.3188 11.7366 28.1938 12.2143 28.0219 12.8457L27.3671 14.8314H29.4844Z" fill="black"/>
<path d="M38.3182 15.1931C38.3182 16.1257 38.0569 16.8628 37.5342 17.404C37.066 17.8857 36.4847 18.1263 35.7908 18.1263C35.0417 18.1263 34.5037 17.8668 34.176 17.348H34.1523V20.2365H32.8889V14.324C32.8889 13.7377 32.8729 13.136 32.842 12.5188H33.9532L34.0237 13.388H34.0474C34.4687 12.7331 35.1081 12.4062 35.9662 12.4062C36.637 12.4062 37.197 12.6617 37.645 13.1731C38.0942 13.6851 38.3182 14.3582 38.3182 15.1931ZM37.0311 15.2377C37.0311 14.704 36.9066 14.264 36.6566 13.9177C36.3834 13.5565 36.0166 13.376 35.5567 13.376C35.245 13.376 34.9617 13.4765 34.7087 13.6748C34.4551 13.8748 34.2891 14.136 34.2115 14.4594C34.1724 14.6103 34.1529 14.7337 34.1529 14.8308V15.7451C34.1529 16.144 34.2797 16.4805 34.5333 16.7554C34.7869 17.0303 35.1164 17.1674 35.5217 17.1674C35.9976 17.1674 36.368 16.9902 36.6329 16.6371C36.8983 16.2834 37.0311 15.8171 37.0311 15.2377Z" fill="black"/>
<path d="M44.8586 15.1931C44.8586 16.1257 44.5973 16.8628 44.074 17.404C43.6065 17.8857 43.0251 18.1263 42.3312 18.1263C41.5822 18.1263 41.0441 17.8668 40.717 17.348H40.6933V20.2365H39.4299V14.324C39.4299 13.7377 39.4139 13.136 39.3831 12.5188H40.4942L40.5647 13.388H40.5884C41.0091 12.7331 41.6485 12.4062 42.5072 12.4062C43.1774 12.4062 43.7374 12.6617 44.1866 13.1731C44.634 13.6851 44.8586 14.3582 44.8586 15.1931ZM43.5715 15.2377C43.5715 14.704 43.4465 14.264 43.1964 13.9177C42.9232 13.5565 42.5576 13.376 42.0971 13.376C41.7848 13.376 41.5022 13.4765 41.2485 13.6748C40.9949 13.8748 40.8296 14.136 40.7519 14.4594C40.7134 14.6103 40.6933 14.7337 40.6933 14.8308V15.7451C40.6933 16.144 40.8201 16.4805 41.0725 16.7554C41.3262 17.0297 41.6557 17.1674 42.0622 17.1674C42.538 17.1674 42.9084 16.9902 43.1733 16.6371C43.4388 16.2834 43.5715 15.8171 43.5715 15.2377Z" fill="black"/>
<path d="M52.1713 15.8697C52.1713 16.5165 51.9384 17.0428 51.4708 17.4491C50.957 17.8931 50.2418 18.1148 49.3227 18.1148C48.4741 18.1148 47.7938 17.9571 47.2788 17.6411L47.5716 16.6257C48.1262 16.9491 48.7348 17.1114 49.3979 17.1114C49.8738 17.1114 50.2441 17.0074 50.5102 16.8005C50.7751 16.5937 50.9073 16.316 50.9073 15.9697C50.9073 15.6611 50.7982 15.4011 50.5795 15.1903C50.3621 14.9794 49.9988 14.7834 49.4915 14.6023C48.1108 14.1057 47.421 13.3783 47.421 12.4217C47.421 11.7965 47.6628 11.284 48.147 10.8851C48.6293 10.4857 49.2729 10.2863 50.0776 10.2863C50.7953 10.2863 51.3914 10.4068 51.8673 10.6474L51.5514 11.6405C51.107 11.4074 50.6044 11.2908 50.0421 11.2908C49.5976 11.2908 49.2504 11.3965 49.0015 11.6068C48.7911 11.7948 48.6856 12.024 48.6856 12.2954C48.6856 12.596 48.8059 12.8445 49.0477 13.04C49.2581 13.2205 49.6403 13.416 50.195 13.6268C50.8735 13.8903 51.3718 14.1983 51.6924 14.5514C52.0118 14.9034 52.1713 15.344 52.1713 15.8697Z" fill="black"/>
<path d="M56.3484 13.4332H54.9558V16.0954C54.9558 16.7726 55.2011 17.1109 55.693 17.1109C55.9187 17.1109 56.106 17.092 56.2541 17.0543L56.2891 17.9794C56.0402 18.0692 55.7125 18.1143 55.3066 18.1143C54.8076 18.1143 54.4177 17.9674 54.1362 17.6743C53.8559 17.3806 53.7149 16.888 53.7149 16.196V13.432H52.8853V12.5177H53.7149V11.5137L54.9558 11.1526V12.5177H56.3484V13.4332Z" fill="black"/>
<path d="M62.6318 15.2154C62.6318 16.0583 62.3817 16.7503 61.8828 17.2914C61.3595 17.8486 60.665 18.1263 59.7992 18.1263C58.9648 18.1263 58.3005 17.8594 57.8051 17.3257C57.3097 16.792 57.062 16.1183 57.062 15.3063C57.062 14.4566 57.3168 13.7606 57.8282 13.2194C58.3385 12.6777 59.027 12.4069 59.8928 12.4069C60.7272 12.4069 61.3986 12.6737 61.9053 13.208C62.39 13.7263 62.6318 14.3954 62.6318 15.2154ZM61.321 15.2549C61.321 14.7491 61.209 14.3154 60.982 13.9537C60.7171 13.516 60.3385 13.2977 59.8478 13.2977C59.3399 13.2977 58.9542 13.5166 58.6893 13.9537C58.4623 14.316 58.3503 14.7566 58.3503 15.2777C58.3503 15.7834 58.4623 16.2171 58.6893 16.5783C58.9625 17.016 59.3441 17.2343 59.8365 17.2343C60.3189 17.2343 60.6976 17.0114 60.9707 16.5669C61.2036 16.1983 61.321 15.76 61.321 15.2549Z" fill="black"/>
<path d="M66.7384 13.5903C66.6134 13.568 66.4801 13.5565 66.3402 13.5565C65.8958 13.5565 65.5521 13.7182 65.3103 14.0422C65.0999 14.328 64.9944 14.6891 64.9944 15.1251V18.0022H63.7316L63.7435 14.2457C63.7435 13.6137 63.7275 13.0382 63.696 12.5194H64.7965L64.8427 13.5685H64.8777C65.011 13.208 65.2214 12.9177 65.5094 12.7C65.7909 12.504 66.0949 12.4062 66.4226 12.4062C66.5393 12.4062 66.6448 12.4142 66.7384 12.4285V13.5903Z" fill="black"/>
<path d="M72.3888 15.0011C72.3888 15.2194 72.374 15.4034 72.3426 15.5537H68.5524C68.5672 16.0954 68.7503 16.5097 69.1023 16.7954C69.4217 17.0509 69.8348 17.1789 70.342 17.1789C70.9032 17.1789 71.4152 17.0926 71.8756 16.9194L72.0736 17.7651C71.5355 17.9914 70.9002 18.104 70.1672 18.104C69.2854 18.104 68.5933 17.8537 68.0896 17.3537C67.5871 16.8537 67.3352 16.1823 67.3352 15.34C67.3352 14.5131 67.5693 13.8246 68.038 13.2754C68.5287 12.6891 69.1918 12.396 70.0262 12.396C70.8457 12.396 71.4662 12.6891 71.8875 13.2754C72.2211 13.7411 72.3888 14.3171 72.3888 15.0011ZM71.1841 14.6851C71.1924 14.324 71.11 14.012 70.9388 13.7486C70.7201 13.4097 70.3841 13.2406 69.9319 13.2406C69.5189 13.2406 69.1829 13.4057 68.9263 13.7371C68.7159 14.0006 68.5909 14.3166 68.5524 14.6846H71.1841V14.6851Z" fill="black"/>
</svg>
