<svg width="220" height="242" viewBox="0 0 220 242" fill="none" xmlns="http://www.w3.org/2000/svg">
<g clip-path="url(#clip0_62_2291)">
<path d="M219.602 153.112V165.922L116.121 106.978V92.6364L219.602 153.112Z" fill="#FFEECC" stroke="black" stroke-miterlimit="10"/>
<path d="M219.602 165.922V241.306L116.121 180.503V106.978L219.602 165.922Z" fill="#FFEECC" stroke="black" stroke-miterlimit="10"/>
<path d="M185.453 179.195C185.588 179.011 185.708 178.82 185.811 178.613C186.121 178.03 186.273 177.384 186.273 176.682V77.1864C186.273 75.6948 185.469 74.299 184.18 73.5412L65.9355 4.44279C65.4503 4.16362 64.9253 3.98016 64.3923 3.90838L68.3139 1.52347C69.1571 0.78168 70.1515 0.398819 71.1776 0.398819C71.9333 0.398819 72.6572 0.606202 73.3253 1.00502L189.804 70.6538C191.125 71.4435 191.952 72.9031 191.952 74.4744V174.17C191.952 176.244 190.576 178.014 188.603 178.477L186.002 179.051L185.461 179.195H185.453Z" fill="#FFEECC"/>
<path d="M71.1776 0.797627C71.8616 0.797627 72.5139 0.981081 73.1264 1.34799L189.605 70.9968C190.807 71.7146 191.554 73.0467 191.554 74.4744V174.17C191.554 176.052 190.305 177.663 188.524 178.086L186.272 178.581C186.543 177.998 186.678 177.36 186.678 176.682V77.1864C186.678 75.5512 185.803 74.0198 184.387 73.1982L66.8582 4.52254L66.1343 4.0998C65.9037 3.96421 65.6571 3.85254 65.4105 3.75682L68.5207 1.86645L68.5844 1.82657L68.64 1.77871C69.356 1.14858 70.2548 0.797627 71.1855 0.797627M71.1776 0C70.04 0 68.9503 0.430719 68.1071 1.18049L62.8093 4.4029C63.1355 4.30719 63.4775 4.25933 63.8196 4.25933C64.4559 4.25933 65.1162 4.42683 65.7366 4.78576L66.4605 5.2085L183.989 73.8842C185.159 74.5701 185.883 75.8304 185.883 77.1864V176.682C185.883 177.328 185.732 177.919 185.461 178.429C185.119 179.099 184.586 179.642 183.95 180L186.082 179.442L188.691 178.868C190.703 178.389 192.35 176.571 192.35 174.17V74.4744C192.35 72.7595 191.459 71.1722 190.011 70.3108L73.5321 0.66203C72.7764 0.207383 71.9651 0 71.1776 0Z" fill="black"/>
<path d="M185.883 77.1863V176.682C185.883 177.328 185.732 177.919 185.461 178.429C185.119 179.099 184.586 179.642 183.95 180C182.836 180.639 181.404 180.718 180.14 179.977L61.5128 110.471C60.3355 109.785 59.6196 108.525 59.6196 107.161L60.0015 8.07995C60.0094 6.23744 61.2583 4.83361 62.8094 4.40289C63.7401 4.13968 64.7822 4.23539 65.7367 4.78575L66.4606 5.2085L183.99 73.8842C185.159 74.5701 185.883 75.8304 185.883 77.1863Z" fill="#010103"/>
<path d="M178.938 172.638C178.7 172.638 178.477 172.575 178.262 172.455L65.8879 108.086C65.4583 107.839 65.1958 107.385 65.1958 106.89L65.5617 13.9984C65.5617 13.1529 66.2776 12.6344 66.9299 12.6344C67.1685 12.6344 67.3992 12.6982 67.606 12.8179L179.623 77.5612C180.044 77.8085 180.307 78.2632 180.307 78.7497V171.274C180.307 172.12 179.599 172.646 178.938 172.646V172.638Z" fill="#EC9C9E"/>
<path d="M66.9299 12.8338C67.1367 12.8338 67.3276 12.8896 67.5106 12.9933L179.527 77.7367C179.885 77.9441 180.116 78.3349 180.116 78.7497V171.274C180.116 172 179.511 172.447 178.946 172.447C178.748 172.447 178.549 172.391 178.366 172.287L65.9912 107.919C65.6253 107.712 65.4026 107.321 65.4026 106.898L65.7685 14.0063C65.7685 13.2805 66.381 12.8338 66.9378 12.8338M66.9378 12.435C66.1185 12.435 65.3708 13.0891 65.3708 13.9983L65.0049 106.89C65.0049 107.456 65.3072 107.983 65.7924 108.262L178.167 172.63C178.421 172.774 178.684 172.838 178.938 172.838C179.758 172.838 180.505 172.184 180.505 171.266V78.7417C180.505 78.1834 180.203 77.6649 179.718 77.3778L67.7094 12.6504C67.4549 12.5068 67.1924 12.435 66.9299 12.435H66.9378Z" fill="black"/>
<path d="M74.8447 89.1029L86.1959 54.6933L93.3232 100.214L108.111 54.6933L118.142 114.244L132.659 98.3633L150.604 131.983L172.249 87.5156" stroke="black" stroke-miterlimit="10"/>
<path d="M212.356 194.669L192.35 184.044L203.916 169.193C205.92 172.072 207.702 175.382 209.134 179.035C211.242 184.427 212.292 189.819 212.356 194.669Z" fill="#81A6A4" stroke="black" stroke-miterlimit="10"/>
<path d="M212.356 194.669C212.435 200.507 211.099 205.556 208.49 208.914L192.35 184.044L212.356 194.669Z" fill="#78B57C" stroke="black" stroke-miterlimit="10"/>
<path d="M208.49 208.914C207.225 210.542 205.666 211.77 203.828 212.496C195.023 215.965 183.122 206.601 177.244 191.582C171.366 176.571 173.744 161.591 182.55 158.122C189.216 155.497 197.655 160.227 203.916 169.193L192.35 184.044L208.49 208.914Z" fill="#81A6A4" stroke="black" stroke-miterlimit="10"/>
<path d="M28.1035 77.0428V77.8404C34.6104 77.8404 41.9922 81.3021 48.8729 87.5874C56.04 94.1279 62.1491 103.085 66.548 113.494C77.1038 138.492 74.0731 163.777 59.7866 169.847C57.7264 170.724 55.4991 171.163 53.1525 171.163C46.6457 171.163 39.2718 167.701 32.3831 161.416C25.216 154.883 19.1069 145.926 14.708 135.509C4.15225 110.503 7.18295 85.2185 21.4694 79.1485C23.5296 78.2791 25.7569 77.8324 28.0956 77.8324V77.0348M28.0956 77.0348C25.6853 77.0348 23.3546 77.4815 21.1592 78.4147C6.44318 84.6681 3.22952 110.368 13.9762 135.82C23.1239 157.46 39.4308 171.952 53.1525 171.952C55.5627 171.952 57.8934 171.506 60.0969 170.573C74.8129 164.319 78.0265 138.62 67.2799 113.175C58.1321 91.5197 41.8252 77.0348 28.0956 77.0348Z" fill="black"/>
<path d="M55.9128 181.963C38.9059 181.963 19.4171 163.944 8.51141 138.157C2.20342 123.209 -0.373865 107.743 1.27273 94.5906C2.91138 81.5175 8.51141 72.3288 17.0546 68.6996C18.399 68.1253 19.8149 67.7026 21.2547 67.4314C22.591 67.1761 23.9751 67.0485 25.3751 67.0485C42.3741 67.0485 61.8549 85.0589 72.7526 110.854C84.6209 138.931 82.5925 167.869 68.0356 178.166C66.8583 179.003 65.5696 179.729 64.2015 180.312C61.6242 181.404 58.8321 181.963 55.9048 181.963H55.9128Z" fill="#FFEECC"/>
<path d="M25.383 67.4473C33.3535 67.4473 42.3899 71.6827 50.8138 79.3719C59.5639 87.3561 67.0253 98.2995 72.4026 111.014C84.1992 138.923 82.2345 167.653 67.8207 177.847C66.6673 178.668 65.4026 179.378 64.0662 179.945C61.5366 181.021 58.7923 181.564 55.9207 181.564C47.9422 181.564 38.9058 177.328 30.4819 169.639C21.7319 161.655 14.2625 150.712 8.88522 137.997C2.59314 123.122 0.0317643 107.72 1.67041 94.6384C3.28519 81.7169 8.80567 72.6319 17.2137 69.0665C18.5341 68.5002 19.9182 68.0854 21.3341 67.8222C22.6387 67.575 23.9989 67.4473 25.383 67.4473ZM25.383 66.6497C23.9592 66.6497 22.5592 66.7773 21.183 67.0405C19.7194 67.3117 18.2875 67.7425 16.9034 68.3327C-1.0421 75.95 -4.96372 107.281 8.14544 138.309C19.2978 164.694 39.1763 182.361 55.9127 182.361C58.848 182.361 61.6878 181.819 64.3685 180.678C65.7526 180.088 67.0571 179.362 68.2742 178.493C82.8151 168.212 85.2254 139.329 73.1265 110.703C61.9741 84.3171 42.1036 66.6497 25.383 66.6497Z" fill="black"/>
<path d="M60.1049 170.58C45.3889 176.834 24.7388 161.272 13.9842 135.828C3.23758 110.376 6.45123 84.6761 21.1672 78.4227C35.8832 72.1773 56.5333 87.731 67.2879 113.183C78.0346 138.628 74.8209 164.327 60.1049 170.58Z" fill="black" stroke="black" stroke-miterlimit="10"/>
<path d="M40.8865 139.696C35.708 139.696 30.0364 133.858 27.6898 126.121C26.0591 120.737 26.3057 115.449 28.3501 111.979C29.4319 110.136 30.9671 108.964 32.7808 108.573C33.2183 108.477 33.6717 108.429 34.133 108.429C39.3115 108.429 44.991 114.268 47.3377 122.005C48.9683 127.389 48.7218 132.677 46.6774 136.147C45.5956 137.989 44.0604 139.162 42.2467 139.553C41.8092 139.649 41.3479 139.696 40.8865 139.696Z" fill="#78B57C"/>
<path d="M34.1331 108.836C39.1444 108.836 44.657 114.547 46.9558 122.125C48.5547 127.405 48.324 132.566 46.3354 135.948C45.3092 137.686 43.8695 138.803 42.1592 139.162C41.7456 139.25 41.316 139.298 40.8865 139.298C35.8751 139.298 30.3626 133.587 28.0637 126.009C26.4648 120.729 26.6955 115.56 28.6842 112.186C29.7103 110.447 31.1501 109.331 32.8603 108.972C33.274 108.884 33.7035 108.836 34.1331 108.836ZM34.1331 108.039C33.6478 108.039 33.1705 108.086 32.6933 108.19C27.0614 109.387 24.6432 117.474 27.308 126.24C29.7421 134.273 35.5967 140.095 40.8865 140.095C41.3717 140.095 41.857 140.047 42.3263 139.944C47.9581 138.747 50.3763 130.659 47.7115 121.893C45.2774 113.861 39.4229 108.039 34.1251 108.039H34.1331Z" fill="black"/>
<path d="M69.9765 177.687C83.4913 166.329 85.0982 138.005 73.5004 110.551C62.4833 84.4687 42.6923 66.2589 25.391 66.2589C24.5717 66.2589 23.7524 66.2988 22.949 66.3865C23.6967 65.9478 24.4763 65.557 25.2638 65.2219C27.849 64.1212 30.6411 63.5709 33.5763 63.5709C50.5832 63.5709 70.0719 81.5893 80.9697 107.385C93.9755 138.149 90.1414 169.304 72.4345 176.834C71.639 177.169 70.8197 177.456 69.9844 177.695L69.9765 177.687Z" fill="#FFEECC"/>
<path d="M33.5684 63.9617C41.5468 63.9617 50.5753 68.1971 59.0072 75.8862C67.7572 83.8705 75.2266 94.8139 80.5959 107.528C93.5142 138.093 89.7755 169.017 72.2675 176.459C72.0527 176.547 71.8379 176.634 71.6231 176.722C83.9766 164.519 85.1221 137.032 73.8584 110.392C62.7776 84.1656 42.8434 65.8521 25.3752 65.8521C25.1763 65.8521 24.9774 65.8521 24.7865 65.8521C24.9934 65.7564 25.2002 65.6606 25.4149 65.5729C27.9445 64.4961 30.6888 63.9537 33.5684 63.9537M33.5684 63.1561C30.6252 63.1561 27.7854 63.6985 25.1047 64.8391C23.7127 65.4293 22.4081 66.1632 21.1831 67.0326C22.5513 66.7693 23.9513 66.6417 25.3831 66.6417C42.1116 66.6417 61.9822 84.3092 73.1266 110.695C85.2255 139.321 82.8152 168.204 68.2743 178.485C69.7459 178.206 71.1856 177.775 72.5777 177.185C90.5153 169.56 94.4369 138.229 81.3277 107.209C70.1754 80.8156 50.2969 63.1561 33.5684 63.1561Z" fill="black"/>
</g>
<defs>
<clipPath id="clip0_62_2291">
<rect width="220" height="242" fill="white"/>
</clipPath>
</defs>
</svg>
