<svg width="271" height="264" viewBox="0 0 271 264" fill="none" xmlns="http://www.w3.org/2000/svg">
<g clip-path="url(#clip0_63_2429)">
<path d="M270.34 48.7524V227.402C270.34 227.912 270.27 228.672 269.9 229.492C269.24 230.942 267.98 231.652 267.28 232.052C265.21 233.242 262.56 234.822 259.33 236.692C260.19 235.862 260.74 234.702 260.74 233.362V53.6724C260.74 52.0324 259.88 50.5224 258.47 49.6824C235.19 35.8024 211.91 21.9324 188.63 8.05244C187.77 7.54244 186.91 7.02244 186.05 6.51244C185.03 5.90244 183.92 5.73244 182.88 5.91244C182.52 5.97244 182.17 6.08244 181.84 6.23244C185.05 4.67244 188.26 3.12244 191.47 1.56244C192.93 0.822438 194.74 0.782439 196.35 1.74244C220.18 15.9524 244.01 30.1524 267.85 44.3624C269.39 45.2824 270.34 46.9524 270.34 48.7524Z" fill="#FFEECC" stroke="black" stroke-miterlimit="10"/>
<path d="M258.47 49.6824C235.19 35.8024 211.91 21.9325 188.63 8.05245C187.77 7.54245 186.91 7.02245 186.05 6.51245C185.03 5.90245 183.92 5.73245 182.88 5.91245C182.52 5.97245 182.17 6.08245 181.84 6.23245L181.64 6.32245C180.14 7.05245 179.03 8.58245 179.03 10.5025V193.452C179.03 195.152 179.95 196.702 181.43 197.522L253.85 237.432C255.77 238.482 257.95 238.032 259.33 236.692C260.19 235.862 260.74 234.702 260.74 233.362V53.6725C260.74 52.0325 259.88 50.5224 258.47 49.6824ZM256.68 228.852C256.68 230.852 254.55 232.122 252.79 231.172C229.95 218.902 207.11 206.632 184.27 194.362C183.42 193.902 182.88 193.012 182.88 192.042C182.92 132.982 182.96 73.9324 182.99 14.8725C182.99 12.8325 185.2 11.5725 186.96 12.5925L202.51 21.6725V24.2225C202.51 26.4424 203.68 28.4925 205.58 29.6325L235.23 47.4125C236.58 48.2225 238.3 47.2425 238.3 45.6625V42.5725L255.37 52.5424C256.18 53.0224 256.68 53.8825 256.68 54.8225V228.852Z" fill="#FFEECC" stroke="black" stroke-miterlimit="10"/>
<path d="M256.68 54.8225V228.852C256.68 230.852 254.55 232.122 252.79 231.172C229.95 218.902 207.11 206.632 184.27 194.362C183.42 193.902 182.88 193.012 182.88 192.042C182.92 132.982 182.96 73.9325 182.99 14.8725C182.99 12.8325 185.2 11.5725 186.96 12.5925L202.51 21.6725V24.2225C202.51 26.4425 203.68 28.4925 205.58 29.6325L235.23 47.4125C236.58 48.2225 238.3 47.2425 238.3 45.6625V42.5725L255.37 52.5425C256.18 53.0225 256.68 53.8825 256.68 54.8225Z" fill="#FFEECC" stroke="black" stroke-miterlimit="10"/>
<path d="M256.68 54.8225V228.852C256.68 230.852 254.55 232.122 252.79 231.172C229.95 218.902 207.11 206.632 184.27 194.362C183.42 193.902 182.88 193.012 182.88 192.042C182.92 132.982 182.96 73.9325 182.99 14.8725C182.99 12.8325 185.2 11.5725 186.96 12.5925L202.51 21.6725V24.2225C202.51 26.4425 203.68 28.4925 205.58 29.6325L235.23 47.4125C236.58 48.2225 238.3 47.2425 238.3 45.6625V42.5725L255.37 52.5425C256.18 53.0225 256.68 53.8825 256.68 54.8225Z" fill="black" stroke="black" stroke-miterlimit="10"/>
<path d="M265.43 80.7424H265.42C264.917 80.7424 264.51 81.1498 264.51 81.6524V90.5324C264.51 91.035 264.917 91.4424 265.42 91.4424H265.43C265.933 91.4424 266.34 91.035 266.34 90.5324V81.6524C266.34 81.1498 265.933 80.7424 265.43 80.7424Z" fill="#FFEECC" stroke="black" stroke-miterlimit="10"/>
<path d="M265.43 95.4824H265.42C264.917 95.4824 264.51 95.8898 264.51 96.3924V105.272C264.51 105.775 264.917 106.182 265.42 106.182H265.43C265.933 106.182 266.34 105.775 266.34 105.272V96.3924C266.34 95.8898 265.933 95.4824 265.43 95.4824Z" fill="#FFEECC" stroke="black" stroke-miterlimit="10"/>
<path d="M211.125 29.188C211.392 29.1472 211.544 28.6849 211.463 28.1553C211.382 27.6256 211.1 27.2293 210.832 27.2701C210.565 27.3108 210.413 27.7732 210.494 28.3028C210.575 28.8324 210.857 29.2287 211.125 29.188Z" fill="black" stroke="black" stroke-width="0.5" stroke-miterlimit="10"/>
<path d="M213.99 29.9824L228.55 38.9724" stroke="black" stroke-width="1.5" stroke-linecap="round" stroke-linejoin="round"/>
<path d="M189.78 47.5225L251.98 81.2425" stroke="#78B57C" stroke-miterlimit="10"/>
<path d="M188.68 96.1725L250.87 129.892" stroke="#78B57C" stroke-miterlimit="10"/>
<path d="M187.03 83.4924C191.16 63.9124 193.72 56.8424 195.27 57.0124C198.58 57.3824 197 90.4524 200.27 90.7324C202.94 90.9624 206.04 69.0324 209.26 69.2524C213.02 69.5024 212.55 99.5524 218.01 100.202C221.81 100.652 225.07 86.4324 229.11 86.9124C234.27 87.5224 234.31 111.412 238.2 111.582C239.79 111.652 240.79 107.732 244.84 99.1725C247.48 93.5925 249.91 89.2124 251.48 86.4824" stroke="#78B57C" stroke-miterlimit="10"/>
<path d="M237.79 146.672C238.66 139.782 235.42 133.022 229.51 129.382L207.98 116.102C205.41 114.512 202.07 116.142 201.73 119.142C200.88 126.742 204.61 134.112 211.23 137.942L231.65 149.722C234.2 151.192 237.42 149.592 237.79 146.672Z" fill="#FFEECC" stroke="black" stroke-miterlimit="10"/>
<path d="M231.96 149.022C232.83 142.132 229.59 135.372 223.68 131.732L202.15 118.452C199.58 116.862 196.24 118.492 195.9 121.492C195.05 129.092 198.78 136.462 205.4 140.292L225.82 152.072C228.37 153.542 231.59 151.942 231.96 149.022Z" fill="#E6B63C" stroke="black" stroke-miterlimit="10"/>
<path d="M120.91 171.562L145.24 155.292L147.94 155.552L147.92 145.772C147.92 144.592 148.58 143.512 149.63 142.972L185.02 124.792C189.14 122.672 194.11 123.182 197.72 126.082L198.23 126.492C201.92 129.452 201.45 135.212 197.33 137.532L172.07 151.752L172.28 189.592L172.39 208.582C172.39 209.722 173.64 210.432 174.63 209.852L178.78 207.422C179.6 206.942 180.1 206.062 180.09 205.112L179.95 184.282C179.95 183.192 180.46 182.152 181.34 181.502L189.83 175.202C191.52 173.952 193.91 175.152 193.91 177.252V226.862C193.91 229.462 192.52 231.862 190.27 233.152L141.73 261.012C138.11 263.092 133.65 263.072 130.05 260.942L80.56 231.682C77.94 230.132 76.33 227.312 76.33 224.272V163.042C76.33 160.182 77.87 157.542 80.36 156.132L104.9 142.282C106.91 141.152 109.38 141.212 111.32 142.452L121.97 149.232L103.05 159.922" fill="#EC9C9E"/>
<path d="M120.91 171.562L145.24 155.292L147.94 155.552L147.92 145.772C147.92 144.592 148.58 143.512 149.63 142.972L185.02 124.792C189.14 122.672 194.11 123.182 197.72 126.082L198.23 126.492C201.92 129.452 201.45 135.212 197.33 137.532L172.07 151.752L172.28 189.592L172.39 208.582C172.39 209.722 173.64 210.432 174.63 209.852L178.78 207.422C179.6 206.942 180.1 206.062 180.09 205.112L179.95 184.282C179.95 183.192 180.46 182.152 181.34 181.502L189.83 175.202C191.52 173.952 193.91 175.152 193.91 177.252V226.862C193.91 229.462 192.52 231.862 190.27 233.152L141.73 261.012C138.11 263.092 133.65 263.072 130.05 260.942L80.56 231.682C77.94 230.132 76.33 227.312 76.33 224.272V163.042C76.33 160.182 77.87 157.542 80.36 156.132L104.9 142.282C106.91 141.152 109.38 141.212 111.32 142.452L121.97 149.232L103.05 159.922" stroke="black" stroke-miterlimit="10"/>
<path d="M148.03 189.592L147.94 155.552" stroke="black" stroke-miterlimit="10"/>
<path d="M120.91 171.562L145.24 155.292L133.05 146.812C131.22 145.532 128.81 145.422 126.86 146.522L103.05 159.922" fill="#EC9C9E"/>
<path d="M120.91 171.562L145.24 155.292L133.05 146.812C131.22 145.532 128.81 145.422 126.86 146.522L103.05 159.922" stroke="black" stroke-miterlimit="10"/>
<path d="M178.62 130.732L188.21 125.782C189.19 125.282 190.36 125.332 191.28 125.922L196.55 129.282C197.93 130.162 197.87 132.202 196.44 133.002L188.68 137.322L178.62 130.732Z" stroke="black" stroke-miterlimit="10"/>
<path d="M62.3501 129.892V212.862C62.3501 213.412 62.2101 213.942 61.9401 214.442C60.8301 216.502 57.6201 217.982 53.8301 217.982C50.0401 217.982 46.8301 216.502 45.7301 214.442C45.4501 213.942 45.3101 213.412 45.3101 212.862V129.892H45.3501C45.8001 132.472 49.4201 134.482 53.8301 134.482C58.2401 134.482 61.8601 132.472 62.3101 129.892H62.3501Z" fill="#78AAA7" stroke="black" stroke-miterlimit="10"/>
<path d="M62.3501 129.362C62.3501 129.542 62.3301 129.722 62.3101 129.892C61.8601 132.472 58.2401 134.482 53.8301 134.482C49.4201 134.482 45.8001 132.472 45.3501 129.892C45.3301 129.722 45.3101 129.542 45.3101 129.362C45.3101 126.532 49.1201 124.242 53.8301 124.242C58.5401 124.242 62.3501 126.532 62.3501 129.362Z" fill="#78AAA7" stroke="black" stroke-miterlimit="10"/>
<path d="M40.05 145.372V202.202C40.05 202.592 39.91 202.962 39.64 203.312C38.53 204.772 35.32 205.812 31.53 205.812C27.74 205.812 24.53 204.772 23.43 203.312C23.15 202.962 23.01 202.592 23.01 202.202V145.372" fill="#E6B63C"/>
<path d="M40.05 145.372V202.202C40.05 202.592 39.91 202.962 39.64 203.312C38.53 204.772 35.32 205.812 31.53 205.812C27.74 205.812 24.53 204.772 23.43 203.312C23.15 202.962 23.01 202.592 23.01 202.202V145.372" stroke="black" stroke-miterlimit="10"/>
<path d="M40.05 145.372C40.05 145.572 40.03 145.772 40.01 145.972C39.56 148.872 35.94 151.122 31.53 151.122C27.12 151.122 23.5 148.862 23.05 145.972C23.03 145.782 23.01 145.582 23.01 145.372C23.01 142.192 26.82 139.622 31.53 139.622C36.24 139.622 40.05 142.192 40.05 145.372Z" fill="#E6B63C" stroke="black" stroke-miterlimit="10"/>
<path d="M17.54 148.482V187.482C17.54 187.662 17.52 187.842 17.5 188.022C17.05 190.662 13.43 192.712 9.02 192.712C4.61 192.712 0.99 190.662 0.54 188.022C0.52 187.842 0.5 187.662 0.5 187.482V148.482" fill="#FF9565"/>
<path d="M17.54 148.482V187.482C17.54 187.662 17.52 187.842 17.5 188.022C17.05 190.662 13.43 192.712 9.02 192.712C4.61 192.712 0.99 190.662 0.54 188.022C0.52 187.842 0.5 187.662 0.5 187.482V148.482" stroke="black" stroke-miterlimit="10"/>
<path d="M17.54 148.472C17.54 148.652 17.52 148.842 17.5 149.012C17.05 151.652 13.43 153.712 9.02 153.712C4.61 153.712 0.99 151.652 0.54 149.012C0.52 148.842 0.5 148.652 0.5 148.472C0.5 145.572 4.31 143.232 9.02 143.232C13.73 143.232 17.54 145.572 17.54 148.472Z" fill="#FF9565" stroke="black" stroke-miterlimit="10"/>
</g>
<defs>
<clipPath id="clip0_63_2429">
<rect width="270.84" height="262.54" fill="white" transform="translate(0 0.512451)"/>
</clipPath>
</defs>
</svg>
