<svg width="77" height="175" viewBox="0 0 77 175" fill="none" xmlns="http://www.w3.org/2000/svg">
<rect width="88.9474" height="118.58" rx="16" transform="matrix(0.859406 0.511293 0 1 0 0)" fill="#FFD3D3"/>
<path d="M16.5865 30.8679L15.1737 23.9434V30.0274L14.1527 29.4199V21.0199L15.5759 21.8667L16.7412 27.588V22.56L17.7519 23.1612V31.5612L16.5865 30.8679ZM19.6985 25.5194V27.8594L21.2558 28.7858V29.9858L19.6985 29.0594V31.5194L21.658 32.6851V33.8851L18.5641 32.0445V23.6445L21.658 25.4851V26.6851L19.6985 25.5194ZM25.2898 36.0458L24.8773 31.3244L24.4648 35.555L22.9075 34.6285L22.1031 25.75L23.2066 26.4065L23.815 33.3924L24.3616 27.0936L25.4548 27.744L26.022 34.7534L26.6098 28.4312L27.5999 29.0202L26.7955 36.9416L25.2898 36.0458ZM15.2974 34.901V37.433L16.7618 38.3042V39.5042L15.2974 38.633V42.101L14.163 41.4261V33.0261L17.1641 34.8115V36.0115L15.2974 34.901ZM18.7497 37.6869V42.2229C18.7497 42.8229 18.9765 43.1858 19.3375 43.4006C19.6984 43.6153 19.9253 43.5223 19.9253 42.9223V38.3863C19.9253 37.7863 19.6984 37.4233 19.3375 37.2086C18.9765 36.9938 18.7497 37.0869 18.7497 37.6869ZM17.6152 41.4639V37.0959C17.6152 35.7519 18.2237 35.3459 19.3375 36.0086C20.4513 36.6712 21.0597 37.8012 21.0597 39.1452V43.5132C21.0597 44.8572 20.4513 45.2632 19.3375 44.6006C18.2237 43.9379 17.6152 42.8079 17.6152 41.4639ZM21.7969 45.9678V37.5678L22.9314 38.2427V45.4427L24.798 46.5532V47.7532L21.7969 45.9678ZM25.2916 48.0469V39.6469L26.4261 40.3218V47.5218L28.2927 48.6324V49.8324L25.2916 48.0469ZM29.8279 44.2777V48.8137C29.8279 49.4137 30.0548 49.7767 30.4158 49.9915C30.7767 50.2062 31.0036 50.1132 31.0036 49.5132V44.9772C31.0036 44.3772 30.7767 44.0142 30.4158 43.7995C30.0548 43.5847 29.8279 43.6777 29.8279 44.2777ZM28.6935 48.0548V43.6868C28.6935 42.3428 29.302 41.9368 30.4158 42.5995C31.5296 43.2621 32.138 44.3921 32.138 45.7361V50.1041C32.138 51.4481 31.5296 51.8541 30.4158 51.1915C29.302 50.5288 28.6935 49.3988 28.6935 48.0548ZM35.8041 54.3012L35.3916 49.5798L34.9791 53.8103L33.4218 52.8839L32.6174 44.0053L33.7209 44.6618L34.3293 51.6478L34.8759 45.349L35.9691 45.9993L36.5363 53.0088L37.1241 46.6865L38.1142 47.2755L37.3098 55.197L35.8041 54.3012ZM39.8207 49.4908V51.8308L41.378 52.7573V53.9573L39.8207 53.0308V55.4908L41.7802 56.6566V57.8566L38.6863 56.0159V47.6159L41.7802 49.4566V50.6566L39.8207 49.4908ZM46.0101 60.3731L44.8551 59.686C44.7932 59.4331 44.752 59.2766 44.752 58.5926V57.2726C44.752 56.4926 44.5251 56.0696 44.0094 55.7628L43.6175 55.5297V58.9497L42.4831 58.2748V49.8748L44.1951 50.8933C45.3707 51.5927 45.8761 52.5294 45.8761 53.8254V54.4854C45.8761 55.3494 45.6389 55.7723 45.1335 55.7476C45.7007 56.3611 45.8864 57.1075 45.8864 57.9835V59.2795C45.8864 59.6875 45.8967 59.9936 46.0101 60.3731ZM44.1641 52.0749L43.6175 51.7497V54.3297L44.061 54.5935C44.4838 54.8451 44.7416 54.7825 44.7416 54.1105V53.2825C44.7416 52.6825 44.5663 52.3142 44.1641 52.0749ZM46.4881 54.2735C46.4881 52.9295 47.0553 52.4989 48.1587 53.1554C49.2622 53.8119 49.8294 54.9174 49.8294 56.2614V56.5254L48.7569 55.8873V55.5393C48.7569 54.9393 48.5506 54.5886 48.1897 54.3738C47.8287 54.1591 47.6225 54.2644 47.6225 54.8644C47.6225 56.5924 49.8397 58.2355 49.8397 60.6355C49.8397 61.9795 49.2622 62.4039 48.1484 61.7413C47.0346 61.0787 46.4571 59.9671 46.4571 58.6231V58.1071L47.5297 58.7452V59.3452C47.5297 59.9452 47.7565 60.2961 48.1175 60.5109C48.4784 60.7256 48.7053 60.6446 48.7053 60.0446C48.7053 58.3166 46.4881 56.6735 46.4881 54.2735Z" fill="black"/>
<path d="M13.9375 66.2734C13.9375 66.2734 29.1608 65.6394 37.4916 73.64C42.1363 78.1007 40.5698 83.2038 46.8612 87.38C53.1527 91.5563 60.6772 83.0888 60.6772 83.0888" stroke="black" stroke-width="2"/>
<path d="M17.8241 89.7042V92.4042L20.1273 93.7745V95.3345L17.8241 93.9642V96.7042L16.4834 95.9066V93.1666L14.1802 91.7963V90.2363L16.4834 91.6066V88.9066L17.8241 89.7042ZM24.8967 94.612V93.832C24.8967 92.572 24.5186 92.007 23.917 91.6491C23.3154 91.2912 22.9373 91.4462 22.9373 92.4462V93.3462L21.1497 92.2828V91.5228C21.1497 89.2828 22.1122 88.5754 23.9686 89.6798C25.8249 90.7842 26.7874 92.6368 26.7874 94.8768V95.2368C26.7874 96.7368 26.3749 97.4314 25.4639 97.3294C26.4093 98.3719 26.7874 99.6368 26.7874 101.057V102.157C26.7874 104.397 25.8249 105.104 23.9686 104C22.1122 102.895 21.1497 101.043 21.1497 98.8028V97.6428L22.9373 98.7062V100.006C22.9373 101.006 23.3154 101.611 23.917 101.969C24.5186 102.327 24.8967 102.212 24.8967 100.972V99.872C24.8967 98.572 24.5186 97.867 23.6592 97.3557L23.0232 96.9774V94.9774L23.7623 95.4171C24.467 95.8363 24.8967 95.732 24.8967 94.612ZM29.2365 96.2939V94.7339C30.6974 95.6031 31.024 94.9774 31.3162 94.2112L32.5881 94.9679V108.968L30.6974 107.843V97.1631L29.2365 96.2939ZM36.0513 100.348V98.7883C37.5123 99.6575 37.8388 99.0317 38.131 98.2656L39.403 99.0223V113.022L37.5123 111.897V101.217L36.0513 100.348Z" fill="black"/>
<path d="M17.8241 89.7042L17.91 89.7553V89.6553L17.8241 89.6042V89.7042ZM17.8241 92.4042L17.7381 92.3531V92.4531L17.8241 92.5042V92.4042ZM20.1273 93.7745L20.2132 93.8256V93.7256L20.1273 93.6745V93.7745ZM20.1273 95.3345V95.4345L20.2132 95.4856V95.3856L20.1273 95.3345ZM17.8241 93.9642V93.8642L17.7381 93.8131V93.9131L17.8241 93.9642ZM17.8241 96.7042V96.8042L17.91 96.8553V96.7553L17.8241 96.7042ZM16.4834 95.9066L16.3975 95.8555V95.9555L16.4834 96.0066V95.9066ZM16.4834 93.1666L16.5693 93.2177V93.1177L16.4834 93.0666V93.1666ZM14.1802 91.7963L14.0943 91.7452V91.8452L14.1802 91.8963V91.7963ZM14.1802 90.2363V90.1363L14.0943 90.0852V90.1852L14.1802 90.2363ZM16.4834 91.6066V91.7066L16.5693 91.7577V91.6577L16.4834 91.6066ZM16.4834 88.9066V88.8066L16.3975 88.7555V88.8555L16.4834 88.9066ZM17.7381 89.6531V92.3531L17.91 92.4553V89.7553L17.7381 89.6531ZM17.8241 92.5042L20.1273 93.8745V93.6745L17.8241 92.3042V92.5042ZM20.0413 93.7233V95.2833L20.2132 95.3856V93.8256L20.0413 93.7233ZM20.1273 95.2345L17.8241 93.8642V94.0642L20.1273 95.4345V95.2345ZM17.7381 93.9131V96.6531L17.91 96.7553V94.0153L17.7381 93.9131ZM17.8241 96.6042L16.4834 95.8066V96.0066L17.8241 96.8042V96.6042ZM16.5693 95.9577V93.2177L16.3975 93.1155V95.8555L16.5693 95.9577ZM16.4834 93.0666L14.1802 91.6963V91.8963L16.4834 93.2666V93.0666ZM14.2661 91.8475V90.2875L14.0943 90.1852V91.7452L14.2661 91.8475ZM14.1802 90.3363L16.4834 91.7066V91.5066L14.1802 90.1363V90.3363ZM16.5693 91.6577V88.9577L16.3975 88.8555V91.5555L16.5693 91.6577ZM16.4834 89.0066L17.8241 89.8042V89.6042L16.4834 88.8066V89.0066ZM22.9373 93.3462V93.4462L23.0232 93.4974V93.3974L22.9373 93.3462ZM21.1497 92.2828L21.0638 92.2316V92.3316L21.1497 92.3828V92.2828ZM25.4639 97.3294L25.431 97.2175L25.2445 97.1966L25.4296 97.4007L25.4639 97.3294ZM21.1497 97.6428V97.5428L21.0638 97.4916V97.5916L21.1497 97.6428ZM22.9373 98.7062L23.0232 98.7574V98.6574L22.9373 98.6062V98.7062ZM23.0232 96.9774L22.9373 96.9262V97.0262L23.0232 97.0774V96.9774ZM23.0232 94.9774V94.8774L22.9373 94.8262V94.9262L23.0232 94.9774ZM24.9827 94.6631V93.8831L24.8108 93.7809V94.5609L24.9827 94.6631ZM24.9827 93.8831C24.9827 93.2457 24.8877 92.7605 24.6991 92.3788C24.5065 91.9891 24.2311 91.736 23.917 91.5491V91.7491C24.2044 91.9201 24.4189 92.1285 24.5658 92.4258C24.7166 92.731 24.8108 93.1583 24.8108 93.7809L24.9827 93.8831ZM23.917 91.5491C23.601 91.3611 23.3289 91.2995 23.1376 91.4336C22.948 91.5666 22.8513 91.8827 22.8513 92.3951L23.0232 92.4974C23.0232 92.0098 23.1156 91.7484 23.2655 91.6433C23.4137 91.5394 23.6314 91.5792 23.917 91.7491V91.5491ZM22.8513 92.3951V93.2951L23.0232 93.3974V92.4974L22.8513 92.3951ZM22.9373 93.2462L21.1497 92.1828V92.3828L22.9373 93.4462V93.2462ZM21.2356 92.3339V91.5739L21.0638 91.4716V92.2316L21.2356 92.3339ZM21.2356 91.5739C21.2356 90.4693 21.473 89.7582 21.9264 89.4524C22.3786 89.1474 23.0576 89.2378 23.9686 89.7798V89.5798C23.0232 89.0174 22.2928 88.9093 21.7997 89.2419C21.3077 89.5737 21.0638 90.3362 21.0638 91.4716L21.2356 91.5739ZM23.9686 89.7798C24.8795 90.3218 25.5585 91.0392 26.0108 91.8823C26.4641 92.7276 26.7015 93.7211 26.7015 94.8257L26.8734 94.928C26.8734 93.7926 26.6294 92.7397 26.1375 91.8226C25.6444 90.9033 24.9139 90.1422 23.9686 89.5798V89.7798ZM26.7015 94.8257V95.1857L26.8734 95.288V94.928L26.7015 94.8257ZM26.7015 95.1857C26.7015 95.9261 26.5995 96.4576 26.3913 96.7919C26.1842 97.1245 25.8691 97.2665 25.431 97.2175L25.4969 97.4414C25.9697 97.4943 26.3164 97.3401 26.5433 96.9758C26.769 96.6133 26.8734 96.0476 26.8734 95.288L26.7015 95.1857ZM25.4296 97.4007C26.3301 98.3937 26.7015 99.605 26.7015 101.006L26.8734 101.108C26.8734 99.6687 26.4884 98.35 25.4983 97.2582L25.4296 97.4007ZM26.7015 101.006V102.106L26.8734 102.208V101.108L26.7015 101.006ZM26.7015 102.106C26.7015 103.21 26.4641 103.921 26.0108 104.227C25.5585 104.532 24.8795 104.442 23.9686 103.9V104.1C24.9139 104.662 25.6444 104.77 26.1375 104.438C26.6294 104.106 26.8734 103.343 26.8734 102.208L26.7015 102.106ZM23.9686 103.9C23.0576 103.358 22.3786 102.64 21.9264 101.797C21.473 100.952 21.2356 99.9585 21.2356 98.8539L21.0638 98.7516C21.0638 99.887 21.3077 100.94 21.7997 101.857C22.2928 102.776 23.0232 103.537 23.9686 104.1V103.9ZM21.2356 98.8539V97.6939L21.0638 97.5916V98.7516L21.2356 98.8539ZM21.1497 97.7428L22.9373 98.8062V98.6062L21.1497 97.5428V97.7428ZM22.8513 98.6551V99.9551L23.0232 100.057V98.7574L22.8513 98.6551ZM22.8513 99.9551C22.8513 100.468 22.948 100.899 23.1376 101.257C23.3289 101.619 23.601 101.881 23.917 102.069V101.869C23.6314 101.699 23.4137 101.48 23.2655 101.2C23.1156 100.916 23.0232 100.545 23.0232 100.057L22.8513 99.9551ZM23.917 102.069C24.2311 102.256 24.5062 102.331 24.6988 102.173C24.8877 102.018 24.9827 101.651 24.9827 101.023L24.8108 100.921C24.8108 101.533 24.7167 101.843 24.5661 101.967C24.4192 102.087 24.2045 102.04 23.917 101.869V102.069ZM24.9827 101.023V99.9231L24.8108 99.8209V100.921L24.9827 101.023ZM24.9827 99.9231C24.9827 99.2663 24.8879 98.7353 24.6663 98.2935C24.4412 97.8447 24.1014 97.5188 23.6592 97.2557V97.4557C24.0764 97.7039 24.3553 97.9862 24.5342 98.3427C24.7164 98.7062 24.8108 99.1777 24.8108 99.8209L24.9827 99.9231ZM23.6592 97.2557L23.0232 96.8774V97.0774L23.6592 97.4557V97.2557ZM23.1092 97.0285V95.0285L22.9373 94.9262V96.9262L23.1092 97.0285ZM23.0232 95.0774L23.7623 95.5171V95.3171L23.0232 94.8774V95.0774ZM23.7623 95.5171C24.1253 95.7331 24.4363 95.8255 24.6549 95.6984C24.8731 95.5715 24.9827 95.2355 24.9827 94.6631L24.8108 94.5609C24.8108 95.1085 24.7055 95.3846 24.5327 95.4851C24.3603 95.5853 24.104 95.5204 23.7623 95.3171V95.5171ZM29.2365 96.2939L29.1505 96.2427V96.3427L29.2365 96.3939V96.2939ZM29.2365 94.7339V94.6339L29.1505 94.5827V94.6827L29.2365 94.7339ZM31.3162 94.2112V94.1112L31.2559 94.0753L31.2354 94.1291L31.3162 94.2112ZM32.5881 94.9679L32.6741 95.019V94.919L32.5881 94.8679V94.9679ZM32.5881 108.968V109.068L32.6741 109.119V109.019L32.5881 108.968ZM30.6974 107.843L30.6115 107.792V107.892L30.6974 107.943V107.843ZM30.6974 97.1631L30.7834 97.2142V97.1142L30.6974 97.0631V97.1631ZM29.3224 96.345V94.785L29.1505 94.6827V96.2427L29.3224 96.345ZM29.2365 94.8339C29.9811 95.2769 30.4515 95.3473 30.7729 95.194C31.0908 95.0422 31.2512 94.6757 31.397 94.2933L31.2354 94.1291C31.089 94.5129 30.94 94.8422 30.6564 94.9776C30.3762 95.1113 29.9528 95.06 29.2365 94.6339V94.8339ZM31.3162 94.3112L32.5881 95.0679V94.8679L31.3162 94.1112V94.3112ZM32.5022 94.9168V108.917L32.6741 109.019V95.019L32.5022 94.9168ZM32.5881 108.868L30.6974 107.743V107.943L32.5881 109.068V108.868ZM30.7834 107.894V97.2142L30.6115 97.1119V107.792L30.7834 107.894ZM30.6974 97.0631L29.2365 96.1939V96.3939L30.6974 97.2631V97.0631ZM36.0513 100.348L35.9653 100.297V100.397L36.0513 100.448V100.348ZM36.0513 98.7883V98.6883L35.9653 98.6371V98.7371L36.0513 98.7883ZM38.131 98.2656V98.1656L38.0707 98.1297L38.0502 98.1835L38.131 98.2656ZM39.403 99.0223L39.4889 99.0734V98.9734L39.403 98.9223V99.0223ZM39.403 113.022V113.122L39.4889 113.173V113.073L39.403 113.022ZM37.5123 111.897L37.4263 111.846V111.946L37.5123 111.997V111.897ZM37.5123 101.217L37.5982 101.269V101.169L37.5123 101.117V101.217ZM36.1372 100.399V98.8394L35.9653 98.7371V100.297L36.1372 100.399ZM36.0513 98.8883C36.7959 99.3313 37.2663 99.4017 37.5877 99.2484C37.9056 99.0966 38.066 98.7301 38.2119 98.3477L38.0502 98.1835C37.9039 98.5673 37.7549 98.8966 37.4712 99.032C37.191 99.1657 36.7676 99.1144 36.0513 98.6883V98.8883ZM38.131 98.3656L39.403 99.1223V98.9223L38.131 98.1656V98.3656ZM39.317 98.9712V112.971L39.4889 113.073V99.0734L39.317 98.9712ZM39.403 112.922L37.5123 111.797V111.997L39.403 113.122V112.922ZM37.5982 111.949V101.269L37.4263 101.166V111.846L37.5982 111.949ZM37.5123 101.117L36.0513 100.248V100.448L37.5123 101.317V101.117Z" fill="black"/>
<g clip-path="url(#clip0_46_647)">
<path d="M60.1455 161.194C59.8908 162.402 59.521 163.553 59.0689 164.615C59.0689 164.631 59.0607 164.648 59.0607 164.656L59.0525 164.656C57.8444 167.489 55.9624 169.767 53.4312 171.22C52.2395 171.906 50.9575 172.371 49.6179 172.64C51.656 171.187 53.1928 169.138 54.2366 166.672C54.5078 166.019 54.7461 165.333 54.9598 164.623C55.0584 164.28 55.1488 163.929 55.231 163.57C55.2967 163.284 55.3625 162.998 55.4118 162.704C55.42 162.664 55.4282 162.623 55.4364 162.574C55.4364 162.533 55.4529 162.5 55.4611 162.459L32.9264 148.27L27.5188 121.85L27.075 119.662C25.3491 119.425 23.6726 119.457 22.0782 119.776C22.4152 119.531 22.7686 119.302 23.1384 119.09C25.7436 117.596 28.7597 117.131 31.932 117.563L32.2361 119.041L32.3676 119.662L37.7835 146.171L56.4144 158.687L58.7073 160.222L58.7156 160.231L60.1455 161.194Z" fill="black" stroke="black" stroke-miterlimit="10"/>
<path d="M42.0077 174.796C33.3949 174.796 23.3768 167.497 17.0651 156.646C8.92072 142.628 9.24946 127.287 17.8047 121.719C17.9938 121.597 18.1828 121.482 18.38 121.368C19.5306 120.707 20.7798 120.241 22.1111 119.98C22.9905 119.8 23.911 119.719 24.8561 119.719C25.5217 119.719 26.2121 119.768 26.8942 119.849L27.3051 121.899L32.7292 148.4L55.2146 162.557L55.1981 162.664C55.1488 162.957 55.0831 163.243 55.0173 163.521C54.9351 163.88 54.8447 164.223 54.7461 164.566C54.5242 165.309 54.2859 165.97 54.0311 166.591C52.971 169.097 51.4424 171.073 49.4782 172.469C49.1166 172.73 48.7796 172.951 48.4509 173.139C46.536 174.241 44.3664 174.796 41.9831 174.796L42.0077 174.796Z" fill="#78AAA7"/>
<path d="M24.8561 119.915C25.4643 119.915 26.0971 119.956 26.7299 120.029L27.1162 121.931L32.5238 148.351L32.5567 148.523L32.7046 148.613L55.001 162.655C54.9516 162.933 54.8941 163.202 54.8284 163.48C54.7462 163.831 54.6558 164.174 54.5654 164.509C54.3435 165.244 54.1134 165.905 53.8586 166.517C52.8149 168.991 51.3027 170.942 49.3796 172.314C49.0262 172.567 48.6975 172.787 48.377 172.967C46.495 174.045 44.3582 174.592 42.016 174.592C33.4772 174.592 23.5248 167.334 17.246 156.54C13.3258 149.805 11.263 142.497 11.4192 135.966C11.5753 129.516 13.8847 124.511 17.9199 121.89C18.1007 121.768 18.2979 121.654 18.4869 121.539C19.6128 120.886 20.8538 120.429 22.1605 120.176C23.0317 120.004 23.9357 119.915 24.8643 119.915M24.8643 119.506C23.911 119.506 22.9823 119.596 22.0865 119.776C20.7552 120.037 19.4813 120.503 18.2897 121.188C18.0924 121.303 17.8952 121.425 17.7062 121.548C9.13446 127.124 8.71533 142.661 16.8926 156.744C23.4344 168.003 33.5511 175 42.016 175C44.3664 175 46.5936 174.461 48.5824 173.318C48.944 173.114 49.2892 172.885 49.6262 172.64C51.6643 171.187 53.2011 169.138 54.2449 166.672C54.5161 166.019 54.7544 165.333 54.9681 164.623C55.0667 164.28 55.1571 163.929 55.2393 163.57C55.305 163.284 55.3708 162.998 55.4201 162.704C55.4283 162.664 55.4365 162.623 55.4447 162.574C55.4447 162.533 55.4612 162.5 55.4694 162.459L32.9347 148.27L27.5189 121.85L27.0751 119.662C26.3272 119.555 25.5876 119.506 24.8561 119.506L24.8643 119.506Z" fill="black"/>
<path d="M59.0937 159.512C59.3895 158.23 59.5539 156.826 59.5868 155.356C59.6936 151.691 59.0197 147.535 57.6308 143.33C56.9569 141.118 56.0611 138.962 54.9845 136.913C54.9434 136.84 54.9105 136.782 54.8859 136.717C54.8612 136.66 54.8283 136.611 54.8037 136.562L54.779 136.497C49.4618 126.111 40.9394 118.788 34.0442 118.682C34.0442 118.682 33.8552 118.682 33.7648 118.682C34.1099 118.429 34.4798 118.208 34.866 118.012C35.9591 117.474 37.1754 117.196 38.4739 117.196L38.6465 117.196C45.5088 117.286 53.9736 124.691 59.2169 135.19C62.9974 142.742 64.5671 150.842 63.4329 156.883L59.0361 159.765C59.0526 159.675 59.0772 159.586 59.0937 159.496V159.512Z" fill="black"/>
<path d="M38.4821 117.408L38.6465 117.408C45.4348 117.498 53.8175 124.854 59.0362 135.288C62.7755 142.767 64.3452 150.776 63.2522 156.769L59.3485 159.324C59.6115 158.091 59.7594 156.753 59.7923 155.356C59.8991 151.666 59.2252 147.486 57.8281 143.265C57.146 141.036 56.2502 138.864 55.1571 136.782C55.1325 136.75 55.116 136.709 55.0996 136.668C55.0996 136.652 55.0832 136.635 55.0749 136.619C55.0585 136.595 55.0421 136.562 55.0256 136.537L54.9599 136.415C49.7084 126.152 41.3339 118.853 34.4305 118.494C34.6031 118.388 34.7839 118.29 34.9647 118.2C36.0331 117.678 37.2165 117.408 38.4821 117.408ZM38.4821 117C37.1672 117 35.9262 117.269 34.7839 117.833C34.1922 118.127 33.6498 118.486 33.1484 118.919C33.4443 118.894 33.7402 118.886 34.0442 118.886C40.7504 118.984 49.166 125.981 54.5901 136.595L54.5818 136.595C54.6229 136.668 54.664 136.733 54.6969 136.799C54.7298 136.872 54.7626 136.937 54.8037 137.003C55.9461 139.175 56.8008 141.322 57.4336 143.387C58.8389 147.641 59.4882 151.748 59.3813 155.348C59.3485 156.818 59.1841 158.198 58.8965 159.463C58.8471 159.692 58.7978 159.92 58.7321 160.141C58.7321 160.157 58.7321 160.165 58.7321 160.182C58.7321 160.198 58.7321 160.214 58.7239 160.231L63.6302 157.014C64.7643 151.127 63.3837 143.044 59.4142 135.109C53.9901 124.266 45.4431 117.09 38.6547 117C38.5972 117 38.5397 117 38.4821 117Z" fill="black"/>
<path d="M32.5896 119.727C32.8033 119.498 33.017 119.294 33.2306 119.123C33.5018 119.106 33.773 119.098 34.0442 119.098C40.7504 119.196 49.0756 126.356 54.3189 136.529L37.9233 145.861L32.5896 119.727Z" fill="#A1E5DD"/>
<path d="M34.036 119.294C40.6353 119.392 48.8208 126.422 54.0394 136.439L38.063 145.535L32.8115 119.784C32.9758 119.613 33.1402 119.457 33.3128 119.311C33.5347 119.294 33.7648 119.286 34.0442 119.286M34.0442 118.878C33.7401 118.878 33.4443 118.886 33.1484 118.91C32.8772 119.131 32.6224 119.376 32.3677 119.653L37.7836 146.163L54.5818 136.595L54.59 136.595C49.1659 125.981 40.7504 118.984 34.0442 118.886V118.878Z" fill="black"/>
<path d="M59.3813 155.348L37.7836 146.171L54.5818 136.603C54.6229 136.668 54.664 136.733 54.6969 136.799C54.7298 136.872 54.7626 136.937 54.8037 137.003C55.9461 139.175 56.8008 141.322 57.4336 143.387C58.8389 147.641 59.4882 151.748 59.3813 155.348Z" fill="#E6B63C" stroke="black" stroke-miterlimit="10"/>
<path d="M56.5296 158.516L39.682 147.2L59.1759 155.479C59.1348 156.875 58.9786 158.198 58.6992 159.414C58.6663 159.577 58.6335 159.733 58.5924 159.888L56.5378 158.508L56.5296 158.516Z" fill="#F4B8B7"/>
<path d="M41.5722 148.229L58.9539 155.618C58.9046 156.948 58.7485 158.214 58.4855 159.381C58.4691 159.439 58.4608 159.504 58.4444 159.561L56.6364 158.353L41.5722 148.229ZM37.7753 146.171L56.4063 158.687L58.6992 160.222C58.6992 160.222 58.7156 160.198 58.7156 160.182C58.7156 160.165 58.7156 160.157 58.7156 160.141C58.7814 159.92 58.8307 159.692 58.88 159.463C59.1676 158.198 59.332 156.818 59.3649 155.348L37.7671 146.171L37.7753 146.171Z" fill="black"/>
</g>
<defs>
<clipPath id="clip0_46_647">
<rect width="53" height="58" fill="white" transform="translate(11 117)"/>
</clipPath>
</defs>
</svg>
