<svg width="118" height="36" viewBox="0 0 118 36" fill="none" xmlns="http://www.w3.org/2000/svg">
<rect x="0.328979" y="0.641235" width="117" height="35" rx="4" fill="white"/>
<path d="M27.481 23.8012C25.753 23.8012 24.857 22.7772 24.857 20.9852V15.0972C24.857 13.3052 25.753 12.2812 27.481 12.2812C29.209 12.2812 30.105 13.3052 30.105 15.0972V16.0572H28.441V14.9852C28.441 14.1852 28.089 13.8812 27.529 13.8812C26.969 13.8812 26.617 14.1852 26.617 14.9852V21.1132C26.617 21.9132 26.969 22.2012 27.529 22.2012C28.089 22.2012 28.441 21.9132 28.441 21.1132V18.9212H27.561V17.3212H30.105V20.9852C30.105 22.7772 29.209 23.8012 27.481 23.8012ZM31.875 23.6412V12.4412H36.675V14.0412H33.635V17.0012H36.051V18.6012H33.635V22.0412H36.675V23.6412H31.875ZM39.7035 23.6412V14.0412H37.8635V12.4412H43.3035V14.0412H41.4635V23.6412H39.7035ZM50.2861 23.8012C48.5581 23.8012 47.6941 22.7772 47.6941 20.9852V20.3452H49.3581V21.1132C49.3581 21.9132 49.7101 22.2012 50.2701 22.2012C50.8301 22.2012 51.1821 21.9132 51.1821 21.0812C51.1821 20.1532 50.8301 19.5612 49.6781 18.5532C48.2061 17.2572 47.7261 16.3452 47.7261 15.0652C47.7261 13.3052 48.6381 12.2812 50.3501 12.2812C52.0621 12.2812 52.9101 13.3052 52.9101 15.0972V15.5612H51.2461V14.9852C51.2461 14.1852 50.9261 13.8812 50.3661 13.8812C49.8061 13.8812 49.4861 14.1852 49.4861 14.9532C49.4861 15.7692 49.8541 16.3612 51.0061 17.3692C52.4781 18.6652 52.9421 19.5612 52.9421 20.9532C52.9421 22.7772 52.0141 23.8012 50.2861 23.8012ZM55.9672 23.6412V14.0412H54.1272V12.4412H59.5672V14.0412H57.7272V23.6412H55.9672ZM59.861 23.6412L61.685 12.4412H64.069L65.893 23.6412H64.133L63.813 21.4172V21.4492H61.813L61.493 23.6412H59.861ZM62.021 19.9292H63.605L62.821 14.3932H62.789L62.021 19.9292ZM67.3869 23.6412V12.4412H69.9949C71.8189 12.4412 72.6029 13.2892 72.6029 15.0172V15.7052C72.6029 16.8572 72.2349 17.5932 71.4509 17.9132V17.9452C72.3309 18.2172 72.6189 19.0492 72.6189 20.3132V22.2812C72.6189 22.8252 72.6349 23.2252 72.8109 23.6412H71.0189C70.9229 23.3532 70.8589 23.1772 70.8589 22.2652V20.2172C70.8589 19.1772 70.5549 18.8412 69.7549 18.8412H69.1469V23.6412H67.3869ZM69.1469 17.2412H69.7869C70.4429 17.2412 70.8429 16.9532 70.8429 16.0572V15.1932C70.8429 14.3932 70.5709 14.0412 69.9469 14.0412H69.1469V17.2412ZM75.8247 23.6412V14.0412H73.9847V12.4412H79.4247V14.0412H77.5847V23.6412H75.8247ZM80.9169 23.6412V12.4412H85.7169V14.0412H82.6769V17.0012H85.0929V18.6012H82.6769V22.0412H85.7169V23.6412H80.9169ZM87.3694 23.6412V12.4412H90.0574C91.8174 12.4412 92.6814 13.4172 92.6814 15.2092V20.8732C92.6814 22.6652 91.8174 23.6412 90.0574 23.6412H87.3694ZM89.1294 22.0412H90.0254C90.5854 22.0412 90.9214 21.7532 90.9214 20.9532V15.1292C90.9214 14.3292 90.5854 14.0412 90.0254 14.0412H89.1294V22.0412Z" fill="black"/>
</svg>
