<svg width="82" height="161" viewBox="0 0 82 161" fill="none" xmlns="http://www.w3.org/2000/svg">
<rect width="99" height="104" rx="16" transform="matrix(0.819152 -0.573576 0.000523634 1 0 56.7841)" fill="#9AEAAC"/>
<path d="M19.0993 68.4197L17.7494 63.2787L17.7526 69.3627L16.7794 70.0441L16.775 61.6441L18.1316 60.6943L19.245 64.9445L19.2423 59.9165L20.2056 59.242L20.21 67.642L19.0993 68.4197ZM21.9736 59.9367L21.976 64.4727C21.9763 65.0727 22.1927 65.1493 22.5368 64.9084C22.8808 64.6675 23.0969 64.288 23.0966 63.688L23.0942 59.152C23.0939 58.552 22.8776 58.4755 22.5335 58.7164C22.1895 58.9573 21.9733 59.3367 21.9736 59.9367ZM20.8947 65.1458L20.8924 60.7778C20.8917 59.4338 21.4713 58.2597 22.5329 57.5164C23.5945 56.773 24.1749 57.1349 24.1756 58.4789L24.1779 62.8469C24.1786 64.1909 23.599 65.365 22.5374 66.1084C21.4758 66.8517 20.8954 66.4898 20.8947 65.1458ZM24.5633 57.3912L24.5626 56.1912L27.9048 53.851L27.9054 55.051L26.775 55.8425L26.7787 63.0425L25.6975 63.7996L25.6937 56.5996L24.5633 57.3912ZM30.9892 52.8917L30.9905 55.4237L32.3864 54.4463L32.387 55.6463L30.9912 56.6237L30.993 60.0917L29.9117 60.8488L29.9073 52.4488L32.7678 50.4459L32.7684 51.6459L30.9892 52.8917ZM34.2801 51.3196L34.2825 55.8556C34.2828 56.4556 34.4992 56.5322 34.8432 56.2913C35.1873 56.0504 35.4034 55.671 35.4031 55.071L35.4007 50.535C35.4004 49.935 35.184 49.8584 34.84 50.0993C34.4959 50.3402 34.2798 50.7196 34.2801 51.3196ZM33.2012 56.5287L33.1989 52.1607C33.1982 50.8167 33.7777 49.6426 34.8394 48.8993C35.901 48.1559 36.4813 48.5178 36.482 49.8618L36.4843 54.2298C36.485 55.5738 35.9055 56.7479 34.8439 57.4913C33.7822 58.2346 33.2019 57.8727 33.2012 56.5287ZM37.1881 55.7538L37.1837 47.3538L38.2649 46.5967L38.2687 53.7967L40.0479 52.5509L40.0485 53.7509L37.1881 55.7538ZM40.5191 53.4214L40.5147 45.0214L41.596 44.2643L41.5997 51.4643L43.3789 50.2185L43.3795 51.4185L40.5191 53.4214ZM44.8395 43.9259L44.8419 48.4619C44.8422 49.0619 45.0586 49.1384 45.4026 48.8975C45.7467 48.6566 45.9628 48.2772 45.9625 47.6772L45.9601 43.1412C45.9598 42.5412 45.7434 42.4646 45.3994 42.7055C45.0553 42.9464 44.8392 43.3259 44.8395 43.9259ZM43.7606 49.135L43.7583 44.767C43.7576 43.423 44.3371 42.2489 45.3987 41.5055C46.4604 40.7622 47.0407 41.1241 47.0414 42.4681L47.0437 46.8361C47.0444 48.1801 46.4649 49.3542 45.4032 50.0975C44.3416 50.8409 43.7613 50.479 43.7606 49.135ZM50.5391 46.4053L50.1436 42.2046L49.7527 46.9559L48.2684 47.9953L47.4973 40.1321L48.5491 39.3957L49.1325 45.6136L49.65 38.6248L50.692 37.8952L51.2361 44.1886L51.7929 37.1243L52.7366 36.4635L51.9743 45.4004L50.5391 46.4053ZM53.2863 44.4817L53.2819 36.0817L54.3632 35.3246L54.3676 43.7246L53.2863 44.4817ZM57.4682 41.5535L56.1183 36.4125L56.1215 42.4965L55.1484 43.1779L55.144 34.7779L56.5005 33.828L57.6139 38.0783L57.6113 33.0503L58.5746 32.3757L58.579 40.7757L57.4682 41.5535ZM60.9733 35.618L60.9726 34.418L62.4864 33.358L62.4878 36.022C62.4885 37.366 61.9385 38.5194 60.8768 39.2628C59.8152 40.0062 59.2643 39.6236 59.2636 38.2796L59.2614 33.9116C59.2606 32.5676 59.8107 31.4142 60.8723 30.6708C61.934 29.9274 62.4848 30.31 62.4855 31.654L62.486 32.47L61.4637 33.1858L61.4632 32.2858C61.4629 31.6858 61.2465 31.6092 60.9025 31.8502C60.5584 32.0911 60.3423 32.4705 60.3426 33.0705L60.345 37.6065C60.3453 38.2065 60.5616 38.2711 60.9057 38.0301C61.2497 37.7892 61.4659 37.4218 61.4656 36.8218L61.4648 35.2738L60.9733 35.618ZM18.4229 72.4946C19.5435 71.71 20.0255 72.0087 20.0262 73.3047L20.0263 73.6047C20.0268 74.4687 19.8108 75.1722 19.3293 75.7854C19.9094 75.6553 20.1358 76.133 20.1363 77.021L20.1366 77.705C20.1373 79.001 19.5774 80.0893 18.4961 80.8465L16.7955 82.0372L16.7911 73.6372L18.4229 72.4946ZM18.3565 77.1628L17.8748 77.5001L17.8762 80.0801L18.4955 79.6465C18.8592 79.3918 19.0557 79.0501 19.0553 78.4261L19.055 77.6941C19.0546 76.9141 18.848 76.8187 18.3565 77.1628ZM18.394 73.7153L17.8731 74.0801L17.8742 76.3001L18.2969 76.0041C18.6999 75.7219 18.9456 75.3339 18.9452 74.6619L18.945 74.1939C18.9446 73.5939 18.7774 73.4469 18.394 73.7153ZM23.183 69.1616L24.2883 76.7907L23.1972 77.5547L23.0097 76.1615L21.6826 77.0907L21.4967 78.7455L20.5038 79.4406L21.6004 70.2697L23.183 69.1616ZM22.3384 71.2415L21.8196 75.8543L22.8616 75.1247L22.3384 71.2415ZM26.9036 71.8263L27.926 71.1105L27.9265 72.2265C27.9272 73.5705 27.3772 74.7239 26.3155 75.4673C25.2539 76.2106 24.7031 75.8281 24.7024 74.4841L24.7001 70.1161C24.6994 68.7721 25.2494 67.6186 26.3111 66.8753C27.3727 66.1319 27.9235 66.5145 27.9242 67.8585L27.9247 68.6745L26.9024 69.3903L26.9019 68.4903C26.9016 67.8903 26.6852 67.8137 26.3412 68.0546C25.9971 68.2955 25.781 68.6749 25.7813 69.2749L25.7837 73.8109C25.784 74.4109 26.0004 74.4755 26.3444 74.2346C26.6884 73.9937 26.9046 73.6263 26.9043 73.0263L26.9036 71.8263ZM31.0509 72.0555L29.9974 69.444L29.6636 70.446L29.6649 73.026L28.5837 73.7831L28.5793 65.3831L29.6605 64.626L29.6625 68.286L31.076 63.6348L32.1573 62.8777L30.6553 67.6748L32.1617 71.2777L31.0509 72.0555Z" fill="black"/>
<path d="M20.3038 115.114L20.3053 117.814L22.5006 116.277L22.5014 117.837L20.3061 119.374L20.3075 122.114L19.0296 123.009L19.0282 120.269L16.8329 121.806L16.8321 120.246L19.0274 118.709L19.026 116.009L20.3038 115.114ZM24.686 111.845L24.6851 110.285C26.0777 109.31 26.3885 108.272 26.6666 107.137L27.8789 106.288L27.8862 120.288L26.0841 121.55L26.0785 110.87L24.686 111.845ZM33.5412 106.545L33.5408 105.765C33.5401 104.505 33.1795 104.418 32.6061 104.819C32.0327 105.221 31.6725 105.853 31.673 106.853L31.6735 107.753L29.9696 108.946L29.9692 108.186C29.9681 105.946 30.8849 104.024 32.6542 102.785C34.4236 101.546 35.3417 102.183 35.3429 104.423L35.3431 104.783C35.3439 106.283 34.9512 107.499 34.0831 108.547C34.9844 108.396 35.3454 109.183 35.3461 110.603L35.3467 111.703C35.3479 113.943 34.4311 115.866 32.6617 117.105C30.8924 118.344 29.9742 117.706 29.9731 115.466L29.9725 114.306L31.6763 113.113L31.677 114.413C31.6775 115.413 32.0381 115.541 32.6115 115.139C33.1849 114.738 33.5452 114.145 33.5445 112.905L33.544 111.805C33.5433 110.505 33.1826 110.278 32.3634 110.851L31.7573 111.276L31.7562 109.276L32.4607 108.782C33.1324 108.312 33.5418 107.665 33.5412 106.545Z" fill="black"/>
<path d="M20.3038 115.114L20.5086 114.97L20.5085 114.72L20.3037 114.864L20.3038 115.114ZM20.3053 117.814L20.1005 117.957L20.1006 118.207L20.3054 118.064L20.3053 117.814ZM22.5006 116.277L22.7054 116.133L22.7052 115.883L22.5005 116.027L22.5006 116.277ZM22.5014 117.837L22.5015 118.087L22.7063 117.943L22.7062 117.693L22.5014 117.837ZM20.3061 119.374L20.3059 119.124L20.1012 119.267L20.1013 119.517L20.3061 119.374ZM20.3075 122.114L20.3076 122.364L20.5124 122.22L20.5123 121.97L20.3075 122.114ZM19.0296 123.009L18.8248 123.152L18.825 123.402L19.0298 123.259L19.0296 123.009ZM19.0282 120.269L19.233 120.125L19.2329 119.875L19.0281 120.019L19.0282 120.269ZM16.8329 121.806L16.6281 121.949L16.6282 122.199L16.833 122.056L16.8329 121.806ZM16.8321 120.246L16.8319 119.996L16.6271 120.139L16.6273 120.389L16.8321 120.246ZM19.0274 118.709L19.0275 118.959L19.2323 118.815L19.2322 118.565L19.0274 118.709ZM19.026 116.009L19.0258 115.759L18.8211 115.902L18.8212 116.152L19.026 116.009ZM20.0991 115.257L20.1005 117.957L20.5101 117.67L20.5086 114.97L20.0991 115.257ZM20.3054 118.064L22.5007 116.527L22.5005 116.027L20.3051 117.564L20.3054 118.064ZM22.2958 116.42L22.2966 117.98L22.7062 117.693L22.7054 116.133L22.2958 116.42ZM22.5013 117.587L20.3059 119.124L20.3062 119.624L22.5015 118.087L22.5013 117.587ZM20.1013 119.517L20.1027 122.257L20.5123 121.97L20.5109 119.23L20.1013 119.517ZM20.3074 121.864L19.0295 122.759L19.0298 123.259L20.3076 122.364L20.3074 121.864ZM19.2344 122.865L19.233 120.125L18.8234 120.412L18.8248 123.152L19.2344 122.865ZM19.0281 120.019L16.8327 121.556L16.833 122.056L19.0283 120.519L19.0281 120.019ZM17.0377 121.662L17.0368 120.102L16.6273 120.389L16.6281 121.949L17.0377 121.662ZM16.8322 120.496L19.0275 118.959L19.0273 118.459L16.8319 119.996L16.8322 120.496ZM19.2322 118.565L19.2308 115.865L18.8212 116.152L18.8226 118.852L19.2322 118.565ZM19.0261 116.259L20.304 115.364L20.3037 114.864L19.0258 115.759L19.0261 116.259ZM24.686 111.845L24.4812 111.989L24.4813 112.239L24.6861 112.095L24.686 111.845ZM24.6851 110.285L24.685 110.035L24.4802 110.179L24.4803 110.429L24.6851 110.285ZM26.6666 107.137L26.6664 106.887L26.5227 106.988L26.4739 107.187L26.6666 107.137ZM27.8789 106.288L28.0837 106.145L28.0836 105.895L27.8788 106.038L27.8789 106.288ZM27.8862 120.288L27.8864 120.538L28.0912 120.395L28.091 120.145L27.8862 120.288ZM26.0841 121.55L25.8793 121.694L25.8794 121.944L26.0842 121.8L26.0841 121.55ZM26.0785 110.87L26.2833 110.727L26.2832 110.477L26.0784 110.62L26.0785 110.87ZM24.8907 111.702L24.8899 110.142L24.4803 110.429L24.4812 111.989L24.8907 111.702ZM24.6853 110.535C25.4153 110.024 25.8971 109.471 26.2327 108.858C26.56 108.26 26.7208 107.652 26.8592 107.087L26.4739 107.187C26.3343 107.757 26.2006 108.236 25.9549 108.685C25.7174 109.118 25.3475 109.571 24.685 110.035L24.6853 110.535ZM26.6667 107.387L27.879 106.538L27.8788 106.038L26.6664 106.887L26.6667 107.387ZM27.6741 106.432L27.6814 120.432L28.091 120.145L28.0837 106.145L27.6741 106.432ZM27.8861 120.038L26.084 121.3L26.0842 121.8L27.8864 120.538L27.8861 120.038ZM26.2889 121.407L26.2833 110.727L25.8737 111.014L25.8793 121.694L26.2889 121.407ZM26.0784 110.62L24.6858 111.595L24.6861 112.095L26.0786 111.12L26.0784 110.62ZM31.6735 107.753L31.6736 108.003L31.8784 107.86L31.8783 107.61L31.6735 107.753ZM29.9696 108.946L29.7649 109.089L29.765 109.339L29.9698 109.196L29.9696 108.946ZM34.0831 108.547L34.0045 108.371L33.5603 108.907L34.0013 108.833L34.0831 108.547ZM29.9725 114.306L29.9723 114.056L29.7675 114.199L29.7677 114.449L29.9725 114.306ZM31.6763 113.113L31.8811 112.97L31.8809 112.72L31.6762 112.863L31.6763 113.113ZM31.7573 111.276L31.5525 111.419L31.5526 111.669L31.7574 111.526L31.7573 111.276ZM31.7562 109.276L31.7561 109.026L31.5513 109.169L31.5514 109.419L31.7562 109.276ZM33.746 106.402L33.7456 105.622L33.336 105.909L33.3364 106.689L33.746 106.402ZM33.7456 105.622C33.7452 104.973 33.654 104.565 33.4469 104.4C33.2306 104.227 32.9245 104.346 32.606 104.569L32.6063 105.069C32.8611 104.891 33.0221 104.852 33.1295 104.938C33.2463 105.031 33.3357 105.297 33.336 105.909L33.7456 105.622ZM32.606 104.569C32.283 104.795 31.9849 105.112 31.7719 105.551C31.5628 105.982 31.4679 106.465 31.4682 106.996L31.8778 106.71C31.8776 106.241 31.9625 105.907 32.0768 105.672C32.1871 105.444 32.3558 105.244 32.6063 105.069L32.606 104.569ZM31.4682 106.996L31.4687 107.896L31.8783 107.61L31.8778 106.71L31.4682 106.996ZM31.6733 107.503L29.9695 108.696L29.9698 109.196L31.6736 108.003L31.6733 107.503ZM30.1744 108.803L30.174 108.043L29.7645 108.329L29.7649 109.089L30.1744 108.803ZM30.174 108.043C30.1735 106.961 30.3945 105.995 30.7988 105.173C31.2004 104.356 31.8107 103.625 32.6544 103.035L32.6541 102.535C31.7284 103.183 30.9956 104.032 30.4967 105.047C30.0006 106.055 29.7639 107.171 29.7645 108.329L30.174 108.043ZM32.6544 103.035C33.498 102.444 34.1086 102.32 34.5108 102.574C34.9156 102.829 35.1375 103.485 35.1381 104.567L35.5477 104.28C35.5471 103.121 35.3093 102.338 34.8125 102.025C34.313 101.709 33.5798 101.886 32.6541 102.535L32.6544 103.035ZM35.1381 104.567L35.1383 104.927L35.5479 104.64L35.5477 104.28L35.1381 104.567ZM35.1383 104.927C35.1387 105.653 35.0435 106.285 34.8578 106.844C34.6747 107.396 34.3971 107.897 34.0045 108.371L34.1617 108.723C34.6371 108.149 34.9899 107.518 35.22 106.825C35.4475 106.139 35.5483 105.414 35.5479 104.64L35.1383 104.927ZM34.0013 108.833C34.7959 108.7 35.1406 109.375 35.1413 110.747L35.5509 110.46C35.5501 108.992 35.1729 108.091 34.1649 108.26L34.0013 108.833ZM35.1413 110.747L35.1419 111.847L35.5515 111.56L35.5509 110.46L35.1413 110.747ZM35.1419 111.847C35.1425 112.928 34.9214 113.894 34.5171 114.716C34.1155 115.533 33.5053 116.264 32.6616 116.855L32.6619 117.355C33.5875 116.706 34.3204 115.857 34.8192 114.843C35.3153 113.834 35.5521 112.718 35.5515 111.56L35.1419 111.847ZM32.6616 116.855C31.8179 117.445 31.2074 117.569 30.8052 117.315C30.4003 117.06 30.1784 116.404 30.1778 115.323L29.7683 115.609C29.7689 116.768 30.0066 117.551 30.5034 117.864C31.003 118.18 31.7362 118.003 32.6619 117.355L32.6616 116.855ZM30.1778 115.323L30.1772 114.163L29.7677 114.449L29.7683 115.609L30.1778 115.323ZM29.9726 114.556L31.6764 113.363L31.6762 112.863L29.9723 114.056L29.9726 114.556ZM31.4715 113.256L31.4722 114.556L31.8818 114.27L31.8811 112.97L31.4715 113.256ZM31.4722 114.556C31.4725 115.087 31.5678 115.437 31.7771 115.575C31.9904 115.716 32.2887 115.615 32.6117 115.389L32.6114 114.889C32.361 115.064 32.1922 115.101 32.0817 115.028C31.9672 114.952 31.882 114.738 31.8818 114.27L31.4722 114.556ZM32.6117 115.389C32.93 115.166 33.2355 114.857 33.4515 114.385C33.6587 113.932 33.7497 113.401 33.7493 112.762L33.3397 113.049C33.3401 113.649 33.2513 114.035 33.1351 114.288C33.0278 114.523 32.8664 114.71 32.6114 114.889L32.6117 115.389ZM33.7493 112.762L33.7487 111.662L33.3392 111.949L33.3397 113.049L33.7493 112.762ZM33.7487 111.662C33.7484 110.995 33.6575 110.539 33.418 110.355C33.1701 110.165 32.8027 110.293 32.3633 110.601L32.3636 111.101C32.7433 110.835 32.9658 110.79 33.1033 110.896C33.249 111.007 33.3388 111.316 33.3392 111.949L33.7487 111.662ZM32.3633 110.601L31.7571 111.026L31.7574 111.526L32.3636 111.101L32.3633 110.601ZM31.9621 111.132L31.961 109.132L31.5514 109.419L31.5525 111.419L31.9621 111.132ZM31.7564 109.526L32.4608 109.032L32.4606 108.532L31.7561 109.026L31.7564 109.526ZM32.4608 109.032C32.8221 108.779 33.1575 108.448 33.3987 107.981C33.6391 107.516 33.7463 106.993 33.746 106.402L33.3364 106.689C33.3367 107.218 33.2395 107.578 33.1074 107.833C32.9761 108.087 32.771 108.315 32.4606 108.532L32.4608 109.032Z" fill="black"/>
</svg>
