<svg width="53" height="58" viewBox="0 0 53 58" fill="none" xmlns="http://www.w3.org/2000/svg">
<g clip-path="url(#clip0_63_2397)">
<path d="M49.1455 44.194C48.8908 45.4023 48.521 46.5535 48.0689 47.6149C48.0689 47.6312 48.0607 47.6475 48.0607 47.6557L48.0525 47.6557C46.8444 50.4887 44.9624 52.7666 42.4312 54.2199C41.2395 54.9057 39.9575 55.3711 38.6179 55.6405C40.656 54.1872 42.1928 52.1379 43.2366 49.6723C43.5078 49.0191 43.7461 48.3333 43.9598 47.623C44.0584 47.2801 44.1488 46.929 44.231 46.5698C44.2967 46.2841 44.3625 45.9983 44.4118 45.7044C44.42 45.6636 44.4282 45.6227 44.4364 45.5738C44.4364 45.5329 44.4529 45.5003 44.4611 45.4595L21.9264 31.2697L16.5188 4.84966L16.075 2.66159C14.3491 2.42483 12.6726 2.45748 11.0782 2.7759C11.4152 2.53096 11.7686 2.30236 12.1384 2.09008C14.7436 0.595997 17.7597 0.130625 20.932 0.563339L21.2361 2.0411L21.3676 2.66159L26.7835 29.1714L45.4144 41.6875L47.7073 43.2224L47.7156 43.2306L49.1455 44.194Z" fill="black" stroke="black" stroke-miterlimit="10"/>
<path d="M31.0077 57.7959C22.3949 57.7959 12.3768 50.4969 6.06509 39.6464C-2.07928 25.6281 -1.75054 10.2872 6.80474 4.71903C6.99376 4.59657 7.18278 4.48226 7.38002 4.36796C8.53058 3.70664 9.77977 3.24127 11.1111 2.98001C11.9905 2.80039 12.911 2.71875 13.8561 2.71875C14.5217 2.71875 15.2121 2.76774 15.8942 2.84938L16.3051 4.89865L21.7292 31.4003L44.2146 45.5574L44.1981 45.6636C44.1488 45.9575 44.0831 46.2432 44.0173 46.5208C43.9351 46.8801 43.8447 47.223 43.7461 47.5659C43.5242 48.3088 43.2859 48.9702 43.0311 49.5907C41.971 52.0971 40.4424 54.0729 38.4782 55.469C38.1166 55.7303 37.7796 55.9507 37.4509 56.1385C35.536 57.2407 33.3664 57.7959 30.9831 57.7959L31.0077 57.7959Z" fill="#78AAA7"/>
<path d="M13.8561 2.91469C14.4643 2.91469 15.0971 2.95551 15.7299 3.02899L16.1162 4.9313L21.5238 31.3513L21.5567 31.5228L21.7046 31.6126L44.001 45.6554C43.9516 45.933 43.8941 46.2024 43.8284 46.48C43.7462 46.8311 43.6558 47.174 43.5654 47.5087C43.3435 48.2435 43.1134 48.9048 42.8586 49.5172C41.8149 51.991 40.3027 53.9423 38.3796 55.3139C38.0262 55.567 37.6975 55.7874 37.377 55.9671C35.495 57.0448 33.3582 57.5918 31.016 57.5918C22.4772 57.5918 12.5248 50.3336 6.24595 39.5403C2.32581 32.8046 0.263009 25.4975 0.419157 18.9659C0.575305 12.516 2.88466 7.51126 6.91986 4.89048C7.10066 4.76801 7.2979 4.65371 7.48692 4.53941C8.61283 3.88626 9.8538 3.42905 11.1605 3.17595C12.0317 3.0045 12.9357 2.91469 13.8643 2.91469M13.8643 2.50647C12.911 2.50647 11.9823 2.59628 11.0865 2.7759C9.75518 3.03716 8.48134 3.50253 7.28968 4.18834C7.09244 4.30264 6.8952 4.42511 6.70618 4.54757C-1.86554 10.1239 -2.28467 25.6608 5.89256 39.7444C12.4344 51.0031 22.5511 58 31.016 58C33.3664 58 35.5936 57.4611 37.5824 56.3181C37.944 56.114 38.2892 55.8854 38.6262 55.6405C40.6643 54.1872 42.2011 52.1379 43.2449 49.6723C43.5161 49.0191 43.7544 48.3333 43.9681 47.623C44.0667 47.2801 44.1571 46.929 44.2393 46.5698C44.305 46.2841 44.3708 45.9983 44.4201 45.7044C44.4283 45.6636 44.4365 45.6227 44.4447 45.5738C44.4447 45.5329 44.4612 45.5003 44.4694 45.4595L21.9347 31.2697L16.5189 4.84966L16.0751 2.66159C15.3272 2.55546 14.5876 2.50647 13.8561 2.50647L13.8643 2.50647Z" fill="black"/>
<path d="M48.0937 42.5121C48.3895 41.2303 48.5539 39.826 48.5868 38.3564C48.6936 34.6906 48.0197 30.5349 46.6308 26.3302C45.9569 24.1177 45.0611 21.9623 43.9845 19.913C43.9434 19.8395 43.9105 19.7824 43.8859 19.7171C43.8612 19.6599 43.8283 19.6109 43.8037 19.5619L43.779 19.4966C38.4618 9.11149 29.9394 1.78801 23.0442 1.68188C23.0442 1.68188 22.8552 1.68188 22.7648 1.68188C23.1099 1.42878 23.4798 1.20834 23.866 1.01239C24.9591 0.473543 26.1754 0.195953 27.4739 0.195953L27.6465 0.195953C34.5088 0.285762 42.9736 7.69089 48.2169 18.1903C51.9974 25.7424 53.5671 33.8415 52.4329 39.8832L48.0361 42.7652C48.0526 42.6754 48.0772 42.5856 48.0937 42.4958V42.5121Z" fill="black"/>
<path d="M27.4821 0.408221L27.6465 0.408221C34.4348 0.498029 42.8175 7.85417 48.0362 18.2883C51.7755 25.7669 53.3452 33.7762 52.2522 39.7689L48.3485 42.3243C48.6115 41.0915 48.7594 39.7525 48.7923 38.3564C48.8991 34.6661 48.2252 30.4859 46.8281 26.2649C46.146 24.036 45.2502 21.8643 44.1571 19.7824C44.1325 19.7497 44.116 19.7089 44.0996 19.6681C44.0996 19.6517 44.0832 19.6354 44.0749 19.6191C44.0585 19.5946 44.0421 19.5619 44.0256 19.5374L43.9599 19.415C38.7084 9.15231 30.3339 1.85332 23.4305 1.49409C23.6031 1.38795 23.7839 1.28998 23.9647 1.20017C25.0331 0.677646 26.2165 0.408221 27.4821 0.408221ZM27.4821 -1.6543e-07C26.1672 -1.24646e-07 24.9262 0.269426 23.7839 0.83277C23.1922 1.12669 22.6498 1.48592 22.1484 1.91864C22.4443 1.89414 22.7402 1.88598 23.0442 1.88598C29.7504 1.98395 38.166 8.98086 43.5901 19.5946L43.5818 19.5946C43.6229 19.6681 43.664 19.7334 43.6969 19.7987C43.7298 19.8722 43.7626 19.9375 43.8037 20.0028C44.9461 22.1746 45.8008 24.3218 46.4336 26.3874C47.8389 30.641 48.4882 34.7477 48.3813 38.3483C48.3485 39.8179 48.1841 41.1976 47.8965 42.4631C47.8471 42.6917 47.7978 42.9203 47.7321 43.1408C47.7321 43.1571 47.7321 43.1653 47.7321 43.1816C47.7321 43.1979 47.7321 43.2142 47.7239 43.2306L52.6302 40.0138C53.7643 34.1272 52.3837 26.0445 48.4142 18.1087C42.9901 7.26633 34.4431 0.0898082 27.6547 -1.70783e-07C27.5972 -1.68999e-07 27.5397 -1.67214e-07 27.4821 -1.6543e-07Z" fill="black"/>
<path d="M21.5896 2.72693C21.8033 2.49832 22.017 2.29421 22.2306 2.12276C22.5018 2.10643 22.773 2.09827 23.0442 2.09827C29.7504 2.19624 38.0756 9.35643 43.3189 19.5293L26.9233 28.8612L21.5896 2.72693Z" fill="#A1E5DD"/>
<path d="M23.036 2.29419C29.6353 2.39217 37.8208 9.42173 43.0394 19.4395L27.063 28.5346L21.8115 2.78406C21.9758 2.61261 22.1402 2.45748 22.3128 2.31052C22.5347 2.29419 22.7648 2.28603 23.0442 2.28603M23.0442 1.87781C22.7401 1.87781 22.4443 1.88597 22.1484 1.91047C21.8772 2.1309 21.6224 2.37584 21.3677 2.65343L26.7836 29.1633L43.5818 19.5946L43.59 19.5946C38.1659 8.98085 29.7504 1.98394 23.0442 1.88597V1.87781Z" fill="black"/>
<path d="M48.3813 38.3482L26.7836 29.1714L43.5818 19.6028C43.6229 19.6681 43.664 19.7334 43.6969 19.7987C43.7298 19.8722 43.7626 19.9375 43.8037 20.0028C44.9461 22.1745 45.8008 24.3218 46.4336 26.3874C47.8389 30.641 48.4882 34.7477 48.3813 38.3482Z" fill="#E6B63C" stroke="black" stroke-miterlimit="10"/>
<path d="M45.5296 41.516L28.682 30.2002L48.1759 38.4789C48.1348 39.875 47.9786 41.1976 47.6992 42.4141C47.6663 42.5774 47.6335 42.7325 47.5924 42.8877L45.5378 41.5079L45.5296 41.516Z" fill="#F4B8B7"/>
<path d="M30.5722 31.2289L47.9539 38.6177C47.9046 39.9485 47.7485 41.214 47.4855 42.3815C47.4691 42.4386 47.4608 42.5039 47.4444 42.5611L45.6364 41.3528L30.5722 31.2289ZM26.7753 29.1714L45.4063 41.6875L47.6992 43.2224C47.6992 43.2224 47.7156 43.1979 47.7156 43.1816C47.7156 43.1653 47.7156 43.1571 47.7156 43.1408C47.7814 42.9203 47.8307 42.6917 47.88 42.4631C48.1676 41.1976 48.332 39.8178 48.3649 38.3483L26.7671 29.1714L26.7753 29.1714Z" fill="black"/>
</g>
<defs>
<clipPath id="clip0_63_2397">
<rect width="53" height="58" fill="white"/>
</clipPath>
</defs>
</svg>
