<svg width="57" height="60" viewBox="0 0 57 60" fill="none" xmlns="http://www.w3.org/2000/svg">
<g clip-path="url(#clip0_63_2459)">
<path d="M24.0993 59.9166L0.374268 40.2499L10.4772 25.5474L19.8698 33.6999L41.8435 0.916595L56.3743 12.4308L24.0993 59.9166Z" fill="black"/>
<path d="M9.14722 42.5214L15.6567 32.4196L25.2227 41.2742L47.9069 7.78879L53.4417 12.819L24.0828 56.4144L9.14722 42.5214Z" fill="#F4B8B7"/>
<path d="M47.9399 8.10265L53.169 12.8603L24.0414 56.1088L9.4115 42.4966L15.6897 32.75L24.9005 41.2741L25.2557 41.6045L25.5283 41.2081L47.9399 8.10265ZM47.8656 7.4749L25.1814 40.9603L15.6154 32.0975L8.88281 42.5544L24.124 56.7283L53.7142 12.786L47.8656 7.46664V7.4749Z" fill="black"/>
</g>
<defs>
<clipPath id="clip0_63_2459">
<rect width="56" height="59" fill="white" transform="translate(0.374268 0.916595)"/>
</clipPath>
</defs>
</svg>
